<svg xmlns="http://www.w3.org/2000/svg" width="18" height="18" viewBox="0 0 17.051 17.929">
  <path id="Path_1098" data-name="Path 1098" d="M4.984,1.134C4.814.568,4.644.115,4.078.058L3,0C1.869-.055,0,1.644,0,4.475.057,9.4,7.419,17.444,12.289,17.9c2.888.283,4.7-1.416,4.757-2.605V14.273c.057-.566-.4-.793-.963-1.019-1.076-.4-2.152-.906-3.228-1.3a1.292,1.292,0,0,0-1.133.283A8.2,8.2,0,0,0,10.7,13.2c-.283.227-.566.34-.849.057a11.712,11.712,0,0,1-5.437-5.89.577.577,0,0,1,.17-.849c.4-.34.68-.623,1.019-.963A1.174,1.174,0,0,0,6,4.475C5.663,3.4,5.323,2.21,4.984,1.134Z" fill="#000" fill-rule="evenodd"/>
</svg>
