<?xml version="1.0" encoding="UTF-8"?>
<svg xmlns="http://www.w3.org/2000/svg" xmlns:xlink="http://www.w3.org/1999/xlink" width="22pt" height="22pt" viewBox="0 0 22 22" version="1.1">
<g id="surface1">
<path style=" stroke:none;fill-rule:nonzero;fill:rgb(225, 225, 225);fill-opacity:1;" d="M 10.207031 15.945312 C 9.320312 15.945312 8.605469 16.65625 8.605469 17.542969 C 8.605469 18.425781 9.320312 19.140625 10.207031 19.140625 C 11.085938 19.140625 11.804688 18.425781 11.804688 17.542969 C 11.804688 16.65625 11.085938 15.945312 10.207031 15.945312 Z M 10.207031 15.945312 "/>
<path style=" stroke:none;fill-rule:nonzero;fill:rgb(225, 225, 225);fill-opacity:1;" d="M 16.722656 15.945312 C 15.839844 15.945312 15.125 16.65625 15.125 17.542969 C 15.125 18.425781 15.839844 19.140625 16.722656 19.140625 C 17.605469 19.140625 18.324219 18.425781 18.324219 17.542969 C 18.324219 16.65625 17.605469 15.945312 16.722656 15.945312 Z M 16.722656 15.945312 "/>
<path style=" stroke:none;fill-rule:nonzero;fill:rgb(225, 225, 225);fill-opacity:1;" d="M 18.03125 8.828125 L 8.898438 8.828125 L 9.261719 10.027344 L 17.667969 10.027344 Z M 18.03125 8.828125 "/>
<path style=" stroke:none;fill-rule:nonzero;fill:rgb(225, 225, 225);fill-opacity:1;" d="M 16.941406 12.425781 L 17.304688 11.226562 L 9.625 11.226562 L 9.988281 12.425781 Z M 16.941406 12.425781 "/>
<path style=" stroke:none;fill-rule:nonzero;fill:rgb(225, 225, 225);fill-opacity:1;" d="M 8.003906 5.863281 L 8.53125 7.632812 L 19.617188 7.632812 L 17.808594 13.617188 L 9.125 13.617188 L 5.867188 2.859375 L 0 2.859375 L 0 4.613281 L 4.550781 4.613281 L 7.816406 15.382812 L 19.113281 15.382812 L 22 5.863281 Z M 8.003906 5.863281 "/>
</g>
</svg> 