<svg width="112" height="85" viewBox="0 0 112 85" fill="none" xmlns="http://www.w3.org/2000/svg">
    <rect width="112" height="85" fill="white" />
    <g>
        <path id="Vector"
            d="M62.321 27.1941C62.5676 27.2948 62.8442 27.2935 63.0899 27.1904C63.3356 27.0872 63.5302 26.8907 63.631 26.6441C63.7318 26.3974 63.7304 26.1208 63.6273 25.8752C63.5241 25.6295 63.3276 25.4348 63.081 25.3341C62.081 24.9041 60.441 21.3341 61.191 18.8941C61.5818 17.8461 62.1426 16.8697 62.851 16.0041C64.0576 14.5874 64.8256 12.85 65.061 11.0041C65.1304 9.88247 64.9178 8.76136 64.4427 7.74301C63.9676 6.72465 63.245 5.84148 62.341 5.17406C62.1208 5.02421 61.8502 4.96795 61.5886 5.01764C61.327 5.06734 61.0958 5.21893 60.946 5.43906C60.7961 5.65919 60.7399 5.92983 60.7896 6.19144C60.8393 6.45306 60.9908 6.68421 61.211 6.83406C61.8228 7.2988 62.3114 7.90644 62.6339 8.60378C62.9564 9.30112 63.103 10.0669 63.061 10.8341C62.843 12.31 62.2042 13.6919 61.221 14.8141C60.3778 15.8621 59.7185 17.0456 59.271 18.3141C58.321 21.4241 60.001 26.2441 62.321 27.1941Z"
            fill="#D3A874" />
    </g>
    <g>
        <path id="Vector_2"
            d="M43.321 22.1941C43.5676 22.2948 43.8442 22.2935 44.0899 22.1904C44.3356 22.0872 44.5302 21.8907 44.631 21.6441C44.7318 21.3974 44.7304 21.1208 44.6273 20.8752C44.5241 20.6295 44.3276 20.4348 44.081 20.3341C43.081 19.9041 41.441 16.3341 42.191 13.8941C42.5818 12.8461 43.1426 11.8697 43.851 11.0041C45.0576 9.58741 45.8256 7.84999 46.061 6.00406C46.1304 4.88247 45.9178 3.76136 45.4427 2.74301C44.9676 1.72465 44.245 0.841478 43.341 0.174058C43.1208 0.0242111 42.8502 -0.0320527 42.5886 0.0176445C42.327 0.0673416 42.0958 0.218929 41.946 0.439058C41.7961 0.659188 41.7399 0.929829 41.7896 1.19144C41.8393 1.45306 41.9908 1.68421 42.211 1.83406C42.8228 2.2988 43.3114 2.90644 43.6339 3.60378C43.9564 4.30112 44.103 5.0669 44.061 5.83406C43.843 7.31002 43.2042 8.69186 42.221 9.81406C41.3778 10.8621 40.7185 12.0456 40.271 13.3141C39.321 16.4241 41.001 21.2441 43.321 22.1941Z"
            fill="#D3A874" />
    </g>
    <g>
        <path id="Vector_3"
            d="M24.3205 27.19C24.5671 27.2908 24.8437 27.2895 25.0894 27.1863C25.3351 27.0832 25.5297 26.8867 25.6305 26.64C25.7313 26.3933 25.7299 26.1168 25.6268 25.8711C25.5237 25.6254 25.3271 25.4308 25.0805 25.33C24.0805 24.9 22.4405 21.33 23.1905 18.89C23.5813 17.842 24.1421 16.8656 24.8505 16C26.0571 14.5833 26.8251 12.8459 27.0605 11C27.1299 9.87841 26.9173 8.7573 26.4422 7.73895C25.9671 6.72059 25.2445 5.83742 24.3405 5.17C24.1204 5.02015 23.8497 4.96389 23.5881 5.01359C23.3265 5.06328 23.0953 5.21487 22.9455 5.435C22.7956 5.65513 22.7394 5.92577 22.7891 6.18738C22.8388 6.449 22.9904 6.68015 23.2105 6.83C23.8223 7.29474 24.3109 7.90238 24.6334 8.59972C24.9559 9.29706 25.1026 10.0628 25.0605 10.83C24.8425 12.306 24.2037 13.6878 23.2205 14.81C22.3773 15.8581 21.718 17.0415 21.2705 18.31C20.3205 21.42 22.0005 26.24 24.3205 27.19Z"
            fill="#D3A874" />
    </g>
    <g>
        <path id="Vector_4"
            d="M111.003 36.0914C110.926 35.9848 110.828 35.8945 110.716 35.8257C110.604 35.7569 110.479 35.711 110.349 35.6906C110.219 35.6701 110.086 35.6756 109.958 35.7066C109.83 35.7376 109.709 35.7936 109.603 35.8714L81.7932 55.8014L104.903 28.6214C105.048 28.4118 105.121 28.1608 105.11 27.9063C105.099 27.6518 105.005 27.4078 104.843 27.2114C104.633 27.0641 104.38 26.9902 104.123 27.001C103.866 27.0119 103.62 27.1069 103.423 27.2714L81.0032 53.6514C80.0317 51.5966 78.6042 49.7906 76.8294 48.3708C75.0545 46.951 72.9791 45.9549 70.7612 45.4582C68.5432 44.9616 66.2412 44.9776 64.0304 45.5049C61.8196 46.0323 59.7582 47.0571 58.0032 48.5014C57.8332 48.6414 57.6732 48.7914 57.5132 48.9314C56.4696 46.1247 54.6098 43.6945 52.1733 41.9538C49.7368 40.2131 46.835 39.2415 43.8416 39.1641C40.8481 39.0866 37.9 39.9069 35.3768 41.5193C32.8535 43.1317 30.8705 45.4624 29.6832 48.2114C29.5032 48.0114 29.3332 47.8114 29.1532 47.6214C27.126 45.5672 24.5492 44.1414 21.732 43.5151C18.9147 42.8887 15.9766 43.0884 13.27 44.0902C10.5634 45.092 8.20326 46.8533 6.47267 49.1629C4.74207 51.4725 3.7145 54.2324 3.51321 57.1114H5.51321C5.7652 54.2024 6.98918 51.4629 8.98794 49.3344C10.9867 47.2059 13.6438 45.8122 16.5312 45.3779C19.4187 44.9436 22.3682 45.4941 24.9046 46.9405C27.4411 48.387 29.4167 50.6452 30.5132 53.3514C30.626 54.5584 30.9088 55.7435 31.3532 56.8714C31.3532 56.9514 31.3532 57.0314 31.3532 57.1114H32.8332C32.8332 57.1914 32.8332 57.2714 32.9032 57.3514H1.00321C0.864872 57.3509 0.727951 57.3792 0.6011 57.4344C0.474248 57.4895 0.360225 57.5705 0.266239 57.672C0.172254 57.7735 0.100351 57.8934 0.0550756 58.0241C0.00980039 58.1548 -0.00786181 58.2935 0.00320564 58.4314C1.06321 72.1114 18.4932 77.6514 25.7032 78.3414V81.1014C25.7032 81.897 26.0193 82.6601 26.5819 83.2227C27.1445 83.7853 27.9076 84.1014 28.7032 84.1014H58.7032C59.4989 84.1014 60.2619 83.7853 60.8245 83.2227C61.3871 82.6601 61.7032 81.897 61.7032 81.1014V78.3514C69.1032 77.7114 86.3232 72.3514 87.3932 58.4314C87.4043 58.2935 87.3866 58.1548 87.3413 58.0241C87.2961 57.8934 87.2242 57.7735 87.1302 57.672C87.0362 57.5705 86.9222 57.4895 86.7953 57.4344C86.6685 57.3792 86.5315 57.3509 86.3932 57.3514H83.1532L110.803 37.4814C110.914 37.4082 111.008 37.3124 111.079 37.2004C111.15 37.0883 111.196 36.9625 111.215 36.8312C111.234 36.6999 111.225 36.5661 111.188 36.4386C111.152 36.3111 111.089 36.1928 111.003 36.0914V36.0914ZM68.5232 57.3514H63.3032C63.7602 56.6687 64.3784 56.1091 65.1031 55.7221C65.8278 55.3352 66.6367 55.1327 67.4582 55.1327C68.2797 55.1327 69.0886 55.3352 69.8133 55.7221C70.538 56.1091 71.1562 56.6687 71.6132 57.3514H68.5232ZM73.8832 57.3514C73.341 56.0975 72.4438 55.0297 71.3021 54.2796C70.1605 53.5294 68.8243 53.1297 67.4582 53.1297C66.0922 53.1297 64.7559 53.5294 63.6143 54.2796C62.4726 55.0297 61.5754 56.0975 61.0332 57.3514H58.9032C59.4903 55.5434 60.6347 53.9678 62.1725 52.8503C63.7102 51.7329 65.5623 51.131 67.4632 51.131C69.3641 51.131 71.2162 51.7329 72.7539 52.8503C74.2917 53.9678 75.4361 55.5434 76.0232 57.3514H73.8832ZM58.3932 50.8214C59.9263 49.3315 61.8033 48.2427 63.8577 47.6515C65.9121 47.0603 68.0806 46.9848 70.1712 47.4318C72.2617 47.8788 74.2098 48.8344 75.8428 50.2141C77.4758 51.5937 78.7434 53.3548 79.5332 55.3414L78.0032 57.1014C77.3368 54.7866 75.9289 52.7546 73.9959 51.3174C72.0629 49.8802 69.7116 49.1172 67.303 49.1455C64.8943 49.1739 62.5616 49.9922 60.663 51.4745C58.7644 52.9569 57.4049 55.0216 56.7932 57.3514H54.7932C55.3236 54.8631 56.5839 52.5895 58.4132 50.8214H58.3932ZM31.1032 50.1014C31.9729 47.4657 33.6633 45.1776 35.9271 43.5718C38.1908 41.966 40.909 41.1269 43.684 41.1772C46.459 41.2275 49.145 42.1646 51.3491 43.8513C53.5532 45.5381 55.1596 47.8859 55.9332 50.5514C55.345 51.2588 54.8228 52.0187 54.3732 52.8214C54.0377 50.1465 52.7315 47.6879 50.7027 45.9125C48.674 44.1372 46.0639 43.1687 43.3681 43.1909C40.6723 43.2131 38.0786 44.2245 36.0793 46.033C34.0801 47.8416 32.8146 50.3213 32.5232 53.0014C32.1556 51.9864 31.6795 51.0141 31.1032 50.1014ZM34.4632 54.1014C34.4632 51.7144 35.4114 49.4252 37.0992 47.7374C38.7871 46.0496 41.0763 45.1014 43.4632 45.1014C45.8502 45.1014 48.1393 46.0496 49.8272 47.7374C51.515 49.4252 52.4632 51.7144 52.4632 54.1014C52.4637 55.21 52.2568 56.3088 51.8532 57.3414H49.6432C50.1775 56.3447 50.4591 55.2322 50.4632 54.1014C50.4632 52.2449 49.7257 50.4644 48.413 49.1516C47.1002 47.8389 45.3197 47.1014 43.4632 47.1014C41.6067 47.1014 39.8262 47.8389 38.5135 49.1516C37.2007 50.4644 36.4632 52.2449 36.4632 54.1014C36.4673 55.2322 36.7489 56.3447 37.2832 57.3414H35.0732C34.6709 56.312 34.464 55.2166 34.4632 54.1114V54.1014ZM39.6932 57.3414C38.9101 56.4425 38.4738 55.2935 38.4632 54.1014C38.4632 52.7753 38.99 51.5035 39.9277 50.5658C40.8654 49.6282 42.1371 49.1014 43.4632 49.1014C44.7893 49.1014 46.0611 49.6282 46.9987 50.5658C47.9364 51.5035 48.4632 52.7753 48.4632 54.1014C48.4526 55.2935 48.0163 56.4425 47.2332 57.3414H39.6932ZM60.6932 76.4014C60.428 76.4014 60.1736 76.5067 59.9861 76.6943C59.7986 76.8818 59.6932 77.1362 59.6932 77.4014V81.1014C59.6932 81.3666 59.5878 81.6209 59.4003 81.8085C59.2128 81.996 58.9584 82.1014 58.6932 82.1014H28.6932C28.428 82.1014 28.1736 81.996 27.9861 81.8085C27.7986 81.6209 27.6932 81.3666 27.6932 81.1014V77.4014C27.6932 77.1362 27.5878 76.8818 27.4003 76.6943C27.2128 76.5067 26.9584 76.4014 26.6932 76.4014C20.9032 76.1914 4.00321 71.5514 2.12321 59.3514H85.2732C83.4132 71.6314 66.4932 76.2214 60.6632 76.4114L60.6932 76.4014Z"
            fill="#D3A874" />
        <path id="Vector_5"
            d="M27.2732 71.3914C25.8742 71.3179 24.4883 71.083 23.1432 70.6914C23.0148 70.6472 22.8788 70.6295 22.7435 70.6396C22.6081 70.6497 22.4761 70.6872 22.3557 70.7499C22.2353 70.8126 22.1289 70.8991 22.0431 71.0043C21.9572 71.1094 21.8936 71.231 21.8562 71.3615C21.8188 71.492 21.8084 71.6287 21.8256 71.7634C21.8428 71.8981 21.8872 72.0278 21.9562 72.1448C22.0251 72.2617 22.1172 72.3634 22.2267 72.4436C22.3362 72.5238 22.4609 72.5809 22.5932 72.6114C24.0848 73.0467 25.6216 73.3085 27.1732 73.3914C27.4384 73.3914 27.6928 73.286 27.8803 73.0985C28.0679 72.9109 28.1732 72.6566 28.1732 72.3914C28.1732 72.1261 28.0679 71.8718 27.8803 71.6843C27.6928 71.4967 27.4384 71.3914 27.1732 71.3914H27.2732Z"
            fill="#D3A874" />
        <path id="Vector_6"
            d="M18.3532 69.2214C13.0832 68.2214 8.95321 63.1614 8.91321 63.1014C8.7445 62.9038 8.50551 62.7796 8.24685 62.7552C7.9882 62.7307 7.73018 62.8079 7.52743 62.9704C7.32468 63.1328 7.19311 63.3678 7.1606 63.6256C7.12808 63.8833 7.19716 64.1436 7.35321 64.3514C7.54321 64.5914 12.0032 70.0014 18.0032 71.1814H18.1932C18.3245 71.1938 18.457 71.1803 18.5831 71.1416C18.7092 71.1029 18.8265 71.0397 18.9281 70.9556C19.0298 70.8716 19.114 70.7684 19.1757 70.6518C19.2375 70.5353 19.2757 70.4077 19.2882 70.2764C19.3007 70.145 19.2872 70.0126 19.2484 69.8865C19.2097 69.7604 19.1465 69.6431 19.0625 69.5414C18.9785 69.4398 18.8752 69.3556 18.7587 69.2938C18.6421 69.2321 18.5145 69.1938 18.3832 69.1814L18.3532 69.2214Z"
            fill="#D3A874" />
        <path id="Vector_7"
            d="M29.4132 57.1114C29.1526 54.3878 27.8864 51.8591 25.8617 50.0188C23.837 48.1786 21.1992 47.159 18.4632 47.159C15.7272 47.159 13.0894 48.1786 11.0647 50.0188C9.04 51.8591 7.77378 54.3878 7.51321 57.1114H9.51321C9.76766 54.9188 10.819 52.8962 12.4673 51.4281C14.1156 49.96 16.2459 49.1489 18.4532 49.1489C20.6605 49.1489 22.7908 49.96 24.4391 51.4281C26.0874 52.8962 27.1388 54.9188 27.3932 57.1114H29.4132Z"
            fill="#D3A874" />
        <path id="Vector_8"
            d="M18.4632 51.1114C16.7814 51.1133 15.1564 51.7208 13.8857 52.8225C12.615 53.9243 11.7835 55.4468 11.5432 57.1114H13.5432C13.7727 55.9811 14.3859 54.9649 15.2789 54.235C16.172 53.5051 17.2899 53.1064 18.4432 53.1064C19.5966 53.1064 20.7145 53.5051 21.6075 54.235C22.5005 54.9649 23.1137 55.9811 23.3432 57.1114H25.3432C25.104 55.4536 24.2782 53.9365 23.0158 52.8356C21.7534 51.7347 20.1382 51.1229 18.4632 51.1114V51.1114Z"
            fill="#D3A874" />
    </g>
</svg>