<svg id="pizza_icon" width="90" height="86" viewBox="0 0 100 96" fill="none" xmlns="http://www.w3.org/2000/svg">
    <g id="pizza_1">
        <animateTransform 
            attributeType="XML" 
            attributeName="transform" 
            type="translate" 
            values="0 0; 4 4; 0 0;"
            begin="pizza_icon.mouseover" 
            утв="pizza_icon.mouseout" 
            dur="1s" 
            repeatCount="0"   
            restart="whenNotActive"
        />
        <path id="Vector"
            d="M61.09 60.7751C59.66 60.7751 58.22 59.5951 57.39 57.6551C57.32 57.4851 57.25 57.3051 57.19 57.1251C56.8333 56.126 56.7303 55.0539 56.89 54.0051C56.9466 53.4513 57.1561 52.9242 57.4952 52.4826C57.8343 52.0411 58.2895 51.7027 58.81 51.5051C59.1679 51.3836 59.547 51.3368 59.9237 51.3678C60.3004 51.3988 60.6667 51.5068 61 51.6851C62.2463 52.4193 63.1574 53.6102 63.54 55.0051C64.0865 56.3553 64.0865 57.865 63.54 59.2151C63.3876 59.5466 63.17 59.844 62.9003 60.0897C62.6306 60.3354 62.3142 60.5243 61.97 60.6451C61.6864 60.7391 61.3886 60.7831 61.09 60.7751V60.7751ZM59.63 53.3551H59.45C59.06 53.4851 58.91 54.0151 58.86 54.3551C58.7604 55.0798 58.8393 55.8179 59.09 56.5051C59.09 56.6451 59.18 56.7651 59.23 56.8851C59.8 58.2351 60.75 58.9451 61.28 58.7651C61.3743 58.7264 61.46 58.6694 61.5321 58.5973C61.6042 58.5252 61.6613 58.4395 61.7 58.3451C62.0183 57.4727 61.9969 56.5125 61.64 55.6551C61.4058 54.7611 60.8411 53.9891 60.06 53.4951C59.9292 53.4162 59.7821 53.3684 59.63 53.3551Z"
            fill="#D3A874" />
        <path id="Vector_2"
            d="M73.65 67.6151C72.4333 67.6163 71.2432 67.2595 70.2278 66.5891C69.2125 65.9188 68.4169 64.9645 67.94 63.8451C67.6241 63.098 67.4586 62.2959 67.453 61.4848C67.4474 60.6736 67.6018 59.8693 67.9074 59.1179C68.213 58.3665 68.6637 57.6827 69.2339 57.1057C69.804 56.5287 70.4823 56.0697 71.23 55.7551C72.7374 55.1194 74.4347 55.1042 75.9532 55.7127C77.4717 56.3213 78.6888 57.5044 79.34 59.0051C79.6591 59.757 79.8258 60.5647 79.8304 61.3814C79.8349 62.1981 79.6773 63.0077 79.3666 63.763C79.0559 64.5184 78.5983 65.2045 78.0204 65.7816C77.4425 66.3588 76.7558 66.8154 76 67.1251C75.2561 67.4403 74.4578 67.6067 73.65 67.6151V67.6151ZM73.65 57.2751C72.8171 57.2753 72.0031 57.5236 71.312 57.9885C70.6209 58.4534 70.0841 59.1137 69.77 59.8851C69.5599 60.3889 69.4517 60.9293 69.4517 61.4751C69.4517 62.021 69.5599 62.5614 69.77 63.0651C70.2063 64.0853 71.0285 64.8914 72.0572 65.3073C73.0858 65.7233 74.2372 65.7153 75.26 65.2851C75.765 65.0731 76.2232 64.7637 76.6086 64.3745C76.9939 63.9853 77.2989 63.5241 77.506 63.0171C77.713 62.51 77.8182 61.9672 77.8155 61.4195C77.8127 60.8718 77.7021 60.3301 77.49 59.8251C77.1669 59.0689 76.6289 58.4241 75.9427 57.9708C75.2566 57.5175 74.4524 57.2756 73.63 57.2751H73.65Z"
            fill="#D3A874" />
        <path id="Vector_3"
            d="M67.19 85.0051L64.39 79.0051L49 46.7851L49.42 46.2851C49.83 45.8051 49.82 45.8051 55.62 47.2851L89.92 56.0051L89.72 56.9451C89.61 57.4351 89.51 57.9451 89.37 58.4351C87.9879 63.8132 85.5012 68.8445 82.0682 73.2089C78.6352 77.5733 74.3312 81.1752 69.43 83.7851C69.16 83.9451 68.85 84.0951 68.55 84.2551L67.19 85.0051ZM52 48.4251L68.11 82.2351L68.47 82.0351C73.1439 79.5544 77.2481 76.1249 80.5199 71.9663C83.7917 67.8077 86.159 63.0116 87.47 57.8851L87.59 57.4151L83.19 56.2951L52 48.4251Z"
            fill="#D3A874" />
        <path id="Vector_4"
            d="M66.72 81.0051L65.78 79.2451C65.93 79.1651 80.44 71.2451 84.28 55.8851L86.22 56.3651C82.16 72.6051 67.35 80.6651 66.72 81.0051Z"
            fill="#D3A874" />
        <path id="Vector_5"
            d="M73.25 64.1151C73.8023 64.1151 74.25 63.6674 74.25 63.1151C74.25 62.5629 73.8023 62.1151 73.25 62.1151C72.6977 62.1151 72.25 62.5629 72.25 63.1151C72.25 63.6674 72.6977 64.1151 73.25 64.1151Z"
            fill="#D3A874" />
        <path id="Vector_6"
            d="M72.25 61.1151C72.8023 61.1151 73.25 60.6674 73.25 60.1151C73.25 59.5629 72.8023 59.1151 72.25 59.1151C71.6977 59.1151 71.25 59.5629 71.25 60.1151C71.25 60.6674 71.6977 61.1151 72.25 61.1151Z"
            fill="#D3A874" />
        <path id="Vector_7"
            d="M75.25 61.1151C75.8023 61.1151 76.25 60.6674 76.25 60.1151C76.25 59.5629 75.8023 59.1151 75.25 59.1151C74.6977 59.1151 74.25 59.5629 74.25 60.1151C74.25 60.6674 74.6977 61.1151 75.25 61.1151Z"
            fill="#D3A874" />
    </g>
    <g id="pizza_2">
        <path id="Vector_8"
            d="M37 21C35.9105 21.0002 34.8453 20.6785 33.9379 20.0754C33.0306 19.4723 32.3216 18.6146 31.9 17.61C31.6237 16.9411 31.4821 16.2241 31.4834 15.5004C31.4847 14.7766 31.6288 14.0602 31.9075 13.3923C32.1862 12.7243 32.594 12.1179 33.1075 11.6079C33.621 11.0978 34.2302 10.6942 34.9 10.42C36.2542 9.86393 37.7735 9.86746 39.1251 10.4298C40.4766 10.9922 41.55 12.0675 42.11 13.42C42.3863 14.0889 42.5279 14.8058 42.5266 15.5296C42.5254 16.2534 42.3812 16.9698 42.1025 17.6377C41.8238 18.3057 41.416 18.9121 40.9025 19.4221C40.389 19.9322 39.7799 20.3358 39.11 20.61C38.4391 20.8773 37.7221 21.0098 37 21ZM37 12C36.3045 12.0002 35.6246 12.2064 35.0462 12.5926C34.4678 12.9788 34.0168 13.5277 33.75 14.17C33.5732 14.5929 33.4821 15.0466 33.4821 15.505C33.4821 15.9633 33.5732 16.4171 33.75 16.84C34.1122 17.6983 34.799 18.3785 35.6607 18.7326C36.5224 19.0866 37.489 19.0857 38.35 18.73C39.2079 18.3759 39.89 17.6955 40.2464 16.8384C40.6027 15.9814 40.604 15.018 40.25 14.16C39.9817 13.5195 39.53 12.9727 38.9517 12.5884C38.3734 12.2041 37.6944 11.9993 37 12V12Z"
            fill="#D3A874" />
        <path id="Vector_9"
            d="M29.17 32.23C27.73 32.23 26.29 31.04 25.47 29.08C25.4 28.91 25.33 28.73 25.28 28.55C24.9288 27.546 24.8326 26.4704 25 25.42C25.0601 24.8657 25.2734 24.339 25.6161 23.8992C25.9587 23.4594 26.4172 23.1238 26.94 22.93C27.294 22.8181 27.667 22.779 28.0365 22.815C28.406 22.8511 28.7644 22.9617 29.09 23.14C30.3439 23.8702 31.2626 25.0617 31.65 26.46C32.1731 27.8194 32.148 29.3288 31.58 30.67C31.426 31.0021 31.2067 31.2999 30.9353 31.5455C30.6639 31.7912 30.3458 31.9798 30 32.1C29.7322 32.1879 29.4519 32.2318 29.17 32.23V32.23ZM27.73 24.8C27.6704 24.7901 27.6096 24.7901 27.55 24.8C27.16 24.93 27.01 25.46 26.95 25.8C26.8451 26.5238 26.9207 27.2624 27.17 27.95C27.17 28.09 27.26 28.21 27.31 28.33C27.87 29.67 28.82 30.39 29.31 30.21C29.4043 30.1713 29.49 30.1142 29.5621 30.0421C29.6342 29.97 29.6913 29.8843 29.73 29.79C30.0675 28.9251 30.0675 27.9649 29.73 27.1V27.1C29.5017 26.2087 28.9443 25.437 28.17 24.94C28.0363 24.8596 27.8856 24.8117 27.73 24.8V24.8Z"
            fill="#D3A874" />
        <path id="Vector_10"
            d="M45.19 30.68C44.3254 30.6234 43.4828 30.3827 42.7188 29.974C41.9547 29.5652 41.2869 28.9979 40.76 28.31C40.0543 27.4594 39.6283 26.4117 39.54 25.31C39.4926 24.7128 39.6148 24.1144 39.8925 23.5837C40.1703 23.0529 40.5923 22.6114 41.11 22.31C43 21.21 45.7 22 47.34 24.18C47.7979 24.7092 48.1381 25.3297 48.338 26.0003C48.538 26.671 48.5932 27.3764 48.5 28.07C48.4196 28.5139 48.2438 28.9352 47.9849 29.3046C47.7259 29.6741 47.3899 29.983 47 30.21C46.4488 30.5238 45.8243 30.686 45.19 30.68V30.68ZM42.95 23.82C42.6605 23.8122 42.3742 23.8812 42.12 24.02C41.919 24.1389 41.757 24.3139 41.654 24.5235C41.551 24.7331 41.5114 24.9682 41.54 25.2C41.6088 25.8966 41.8878 26.5557 42.34 27.09C42.421 27.198 42.5078 27.3015 42.6 27.4C43.66 28.53 45.12 28.99 46 28.49C46.1433 28.4069 46.2661 28.2929 46.3595 28.1562C46.453 28.0195 46.5146 27.8636 46.54 27.7C46.576 27.2874 46.5262 26.8718 46.3937 26.4794C46.2611 26.087 46.0488 25.7263 45.77 25.42V25.42C45.4481 24.9608 45.028 24.579 44.5403 24.3023C44.0525 24.0256 43.5093 23.8608 42.95 23.82V23.82Z"
            fill="#D3A874" />
        <path id="Vector_11"
            d="M34.92 57C33.9501 56.9173 33.0225 56.5655 32.2416 55.9843C31.4607 55.403 30.8576 54.6154 30.5 53.71C30.4173 53.5306 30.3439 53.347 30.28 53.16C29.8758 52.1206 29.8059 50.981 30.08 49.9C30.2256 49.32 30.5317 48.7928 30.9633 48.3789C31.3949 47.965 31.9344 47.6812 32.52 47.56C34.62 47.13 36.95 48.77 37.83 51.32C38.0936 51.9682 38.2183 52.6644 38.1959 53.3638C38.1735 54.0632 38.0046 54.75 37.7 55.38C37.4843 55.7769 37.1847 56.1221 36.822 56.3915C36.4593 56.6609 36.0423 56.8481 35.6 56.94C35.376 56.9835 35.1481 57.0036 34.92 57V57ZM33.2 49.5H32.93C32.7018 49.5501 32.4932 49.6657 32.3297 49.8327C32.1663 49.9997 32.0552 50.2108 32.01 50.44C31.8609 51.1076 31.9167 51.8046 32.17 52.44C32.2133 52.5692 32.2634 52.696 32.32 52.82C32.97 54.22 34.2 55.12 35.2 54.92C35.3619 54.8861 35.5142 54.8164 35.6456 54.716C35.7771 54.6157 35.8845 54.4872 35.96 54.34C36.1266 53.9601 36.2126 53.5498 36.2126 53.135C36.2126 52.7202 36.1266 52.3099 35.96 51.93V51.93C35.7825 51.3024 35.4277 50.7393 34.9381 50.3082C34.4486 49.8772 33.8451 49.5966 33.2 49.5Z"
            fill="#D3A874" />
        <path id="Vector_12"
            d="M16.48 43.42C15.0388 43.4207 13.6295 42.9959 12.4287 42.1989C11.228 41.402 10.2891 40.2683 9.73 38.94C9.36152 38.0565 9.17117 37.1088 9.16987 36.1515C9.16857 35.1942 9.35635 34.2461 9.72243 33.3616C10.0885 32.477 10.6257 31.6735 11.3031 30.9971C11.9805 30.3207 12.7849 29.7847 13.67 29.42V29.42C15.4568 28.679 17.4642 28.6754 19.2537 29.4099C21.0431 30.1444 22.4691 31.5574 23.22 33.34C23.5871 34.2237 23.7764 35.1711 23.7771 36.1281C23.7777 37.085 23.5897 38.0327 23.2237 38.9169C22.8578 39.8011 22.3211 40.6044 21.6444 41.281C20.9677 41.9576 20.1643 42.4942 19.28 42.86C18.3928 43.2297 17.4411 43.42 16.48 43.42ZM16.48 30.86C15.7931 30.8658 15.1138 31.005 14.48 31.27V31.27C13.8382 31.534 13.2548 31.9222 12.7634 32.4123C12.272 32.9024 11.8823 33.4847 11.6165 34.1258C11.3508 34.767 11.2143 35.4543 11.2149 36.1483C11.2155 36.8423 11.3532 37.5293 11.62 38.17C12.1674 39.4514 13.1966 40.4663 14.4856 40.9957C15.7745 41.5251 17.2199 41.5267 18.51 41C19.151 40.7349 19.7334 40.3461 20.2241 39.8558C20.7148 39.3655 21.104 38.7833 21.3696 38.1426C21.6352 37.5018 21.772 36.815 21.772 36.1213C21.7721 35.4277 21.6355 34.7408 21.37 34.1C20.962 33.1362 20.2783 32.3144 19.4047 31.7379C18.5311 31.1615 17.5066 30.856 16.46 30.86H16.48Z"
            fill="#D3A874" />
        <path id="Vector_13"
            d="M16.58 56.53C16.0891 56.5338 15.6072 56.3986 15.19 56.14C14.7353 55.8369 14.3859 55.4001 14.19 54.89C13.9544 54.1131 13.9004 53.2926 14.0322 52.4915C14.1639 51.6905 14.478 50.9304 14.95 50.27C15.4857 49.3441 16.2413 48.5644 17.15 48C17.6172 47.6967 18.1581 47.5263 18.7147 47.5069C19.2714 47.4875 19.8228 47.6199 20.31 47.89C20.6124 48.0848 20.8726 48.3383 21.0753 48.6355C21.2779 48.9326 21.419 49.2674 21.49 49.62C21.737 51.0631 21.4183 52.5459 20.6 53.76C20.2121 54.5188 19.6416 55.1692 18.9398 55.6527C18.2381 56.1363 17.4272 56.4377 16.58 56.53V56.53ZM18.91 49.53C18.6337 49.5493 18.3661 49.6351 18.13 49.78C17.5054 50.1617 16.9835 50.6904 16.61 51.32C16.3136 51.7157 16.1058 52.1706 16.0005 52.6537C15.8953 53.1368 15.8951 53.6368 16 54.12C16.0457 54.2513 16.1336 54.3638 16.25 54.44C16.73 54.74 17.97 54.24 18.9 52.74C19.4265 51.9743 19.6542 51.0422 19.54 50.12C19.5111 49.9274 19.4112 49.7527 19.26 49.63C19.1542 49.5675 19.0328 49.5363 18.91 49.54V49.53Z"
            fill="#D3A874" />
        <path id="Vector_14"
            d="M27.5 73.24L15.81 65.24L17.17 63C18.1091 61.824 19.3923 60.971 20.84 60.56V60.56C22.2334 60.1594 23.7148 60.1846 25.0938 60.6324C26.4729 61.0802 27.6865 61.9301 28.5788 63.0728C29.4711 64.2156 30.0013 65.5991 30.1013 67.0456C30.2013 68.492 29.8665 69.9353 29.14 71.19C28.8616 71.6905 28.526 72.1569 28.14 72.58L27.5 73.24ZM18.5 64.64L27.16 70.58L27.38 70.23C27.7336 69.6187 27.9618 68.943 28.0511 68.2424C28.1404 67.5418 28.089 66.8305 27.9 66.15C27.7099 65.4827 27.3902 64.8594 26.959 64.3157C26.5279 63.772 25.9938 63.3187 25.3874 62.9815C24.7809 62.6444 24.114 62.4301 23.4246 62.3509C22.7353 62.2717 22.0371 62.3292 21.37 62.52C20.3414 62.812 19.427 63.4123 18.75 64.24L18.5 64.64Z"
            fill="#D3A874" />
        <path id="Vector_15"
            d="M41.3 68.67C40.2066 68.6707 39.1373 68.3483 38.2264 67.7434C37.3155 67.1385 36.6036 66.2781 36.18 65.27C35.9002 64.5985 35.7559 63.8784 35.7554 63.1509C35.7548 62.4235 35.8981 61.7032 36.1769 61.0313C36.4557 60.3594 36.8645 59.7492 37.3799 59.2359C37.8953 58.7225 38.507 58.3161 39.18 58.04C40.5384 57.4828 42.062 57.4855 43.4184 58.0476C44.7748 58.6096 45.8538 59.6853 46.42 61.04C46.6984 61.7116 46.8417 62.4316 46.8416 63.1586C46.8415 63.8857 46.698 64.6056 46.4193 65.2771C46.1407 65.9486 45.7323 66.5586 45.2177 67.0722C44.703 67.5858 44.0922 67.9928 43.42 68.27C42.7464 68.541 42.0261 68.6769 41.3 68.67V68.67ZM38 64.5C38.3643 65.3664 39.0574 66.053 39.9272 66.4092C40.7971 66.7654 41.7726 66.7621 42.64 66.4C43.5044 66.0416 44.191 65.3547 44.5492 64.4903C44.9073 63.6259 44.9076 62.6546 44.55 61.79C44.1856 60.926 43.4942 60.2413 42.6268 59.8853C41.7593 59.5294 40.7862 59.531 39.92 59.89C39.4903 60.0654 39.0995 60.3241 38.7702 60.6511C38.4408 60.9782 38.1794 61.3671 38.001 61.7956C37.8225 62.224 37.7306 62.6835 37.7304 63.1477C37.7302 63.6118 37.8219 64.0714 38 64.5Z"
            fill="#D3A874" />
        <path id="Vector_16"
            d="M56.23 23.63H56.16C54.69 23.63 53.41 22.14 53.06 20.1C52.8044 18.9189 53.0197 17.6848 53.66 16.66C53.8458 16.3965 54.082 16.1725 54.3549 16.0009C54.6278 15.8292 54.9321 15.7134 55.25 15.66V15.66C56.86 15.4 58.42 16.94 58.8 19.16C59.18 21.38 58.27 23.36 56.61 23.64C56.4833 23.6478 56.3561 23.6445 56.23 23.63V23.63ZM55.58 17.63C55.4587 17.6634 55.3548 17.7421 55.29 17.85C54.969 18.4318 54.8661 19.1091 55 19.76C55.2 20.95 55.83 21.62 56.19 21.63C56.55 21.64 57.02 20.7 56.8 19.45C56.58 18.2 55.9 17.57 55.58 17.59V17.63Z"
            fill="#D3A874" />
        <path id="Vector_17"
            d="M26.27 53.46L25 51.29C24.4454 50.0742 24.2362 48.7292 24.3952 47.4023C24.5542 46.0755 25.0754 44.818 25.9016 43.7677C26.7278 42.7174 27.8272 41.9147 29.0792 41.4477C30.3313 40.9807 31.6878 40.8673 33 41.12V41.12C33.9562 41.3027 34.8663 41.6746 35.6768 42.2138C36.4873 42.753 37.182 43.4487 37.72 44.26C38.0397 44.7444 38.3014 45.2646 38.5 45.81L38.79 46.62L26.27 53.46ZM26.74 50.4L26.98 50.8L36.2 45.72L36 45.37C35.6097 44.7821 35.1062 44.2778 34.5191 43.8864C33.9319 43.4949 33.2728 43.2242 32.58 43.09V43.09C31.1996 42.8263 29.7709 43.1217 28.6083 43.9112C27.4456 44.7007 26.6441 45.9196 26.38 47.3C26.1798 48.3458 26.3054 49.4279 26.74 50.4V50.4Z"
            fill="#D3A874" />
        <path id="Vector_18"
            d="M47.63 36.67C46.5122 36.669 45.4114 36.3952 44.4234 35.8724C43.4353 35.3496 42.5897 34.5936 41.96 33.67L41.48 33L51.17 23.84L52.92 25.53C53.8208 26.6175 54.3561 27.961 54.45 29.37C54.5708 31.1838 53.9667 32.9714 52.7705 34.3401C51.5742 35.7088 49.8836 36.5468 48.07 36.67H47.63ZM44.16 33.22L44.38 33.43C45.0998 34.0702 45.9936 34.482 46.948 34.6132C47.9023 34.7444 48.8741 34.589 49.7399 34.1668C50.6058 33.7446 51.3266 33.0746 51.8109 32.2419C52.2952 31.4092 52.5212 30.4514 52.46 29.49C52.4066 28.5219 52.0575 27.5935 51.46 26.83L51.2 26.58L44.16 33.22Z"
            fill="#D3A874" />
        <path id="Vector_19"
            d="M80 40.5C80.0102 31.8791 77.2033 23.491 72.0067 16.6125C66.81 9.73396 59.5081 4.74176 51.2126 2.3958C42.917 0.0498443 34.0822 0.478616 26.0528 3.61685C18.0234 6.75508 11.2393 12.4309 6.7331 19.7803C2.22694 27.1297 0.245518 35.7502 1.09046 44.3296C1.9354 52.909 5.56043 60.9773 11.4137 67.3065C17.2671 73.6357 25.0281 77.879 33.5154 79.3906C42.0027 80.9021 50.7515 79.5992 58.43 75.68L57.57 73.87L56.72 72.06L55.87 70.25L41.81 40.5L73 48.5L75 49L76.94 49.5L78.79 49.97L78.84 49.76H78.92C79.6449 46.7269 80.0075 43.6185 80 40.5V40.5ZM38.19 37.5L54.06 71.12C47.2093 74.1615 39.5374 74.8213 32.268 72.9942C24.9986 71.1671 18.5504 66.9583 13.9519 61.0391C9.35346 55.12 6.86956 47.8314 6.89644 40.3359C6.92332 32.8405 9.45942 25.5699 14.1002 19.6838C18.7411 13.7978 25.2193 9.63536 32.5016 7.86043C39.7839 6.0855 47.4509 6.80032 54.2796 9.89087C61.1083 12.9814 66.7054 18.2697 70.1781 24.9122C73.6509 31.5547 74.7992 39.1688 73.44 46.54L38.19 37.5ZM75.39 47C76.8491 39.1919 75.6496 31.12 71.9831 24.0735C68.3166 17.027 62.3946 11.4124 55.1629 8.12637C47.9312 4.84032 39.8069 4.07239 32.0875 5.94522C24.3681 7.81804 17.499 12.2236 12.5771 18.4583C7.65527 24.693 4.96459 32.3971 4.93482 40.3404C4.90505 48.2836 7.5379 56.0077 12.4129 62.2791C17.2879 68.5505 24.1238 73.0075 31.8289 74.9381C39.534 76.8688 47.6639 76.1617 54.92 72.93L55.77 74.74C48.1 78.1638 39.5031 78.9156 31.3553 76.8752C23.2074 74.8348 15.9795 70.1201 10.8283 63.4856C5.67707 56.8511 2.90038 48.6804 2.94255 40.281C2.98472 31.8816 5.84332 23.7391 11.0609 17.1567C16.2784 10.5743 23.5533 5.93235 31.7213 3.97386C39.8892 2.01536 48.4781 2.8535 56.1134 6.35413C63.7486 9.85477 69.9888 15.8155 73.8354 23.2825C77.682 30.7494 78.9125 39.2909 77.33 47.54L75.39 47Z"
            fill="#D3A874" />
        <path id="Vector_20"
            d="M15 35C15.5523 35 16 34.5523 16 34C16 33.4477 15.5523 33 15 33C14.4477 33 14 33.4477 14 34C14 34.5523 14.4477 35 15 35Z"
            fill="#D3A874" />
        <path id="Vector_21"
            d="M15 40C15.5523 40 16 39.5523 16 39C16 38.4477 15.5523 38 15 38C14.4477 38 14 38.4477 14 39C14 39.5523 14.4477 40 15 40Z"
            fill="#D3A874" />
        <path id="Vector_22"
            d="M19 37C19.5523 37 20 36.5523 20 36C20 35.4477 19.5523 35 19 35C18.4477 35 18 35.4477 18 36C18 36.5523 18.4477 37 19 37Z"
            fill="#D3A874" />
        <path id="Vector_23"
            d="M64.48 42.42C63.0388 42.4207 61.6295 41.9959 60.4287 41.1989C59.228 40.402 58.2892 39.2683 57.73 37.94C57.3615 37.0565 57.1712 36.1088 57.1699 35.1515C57.1686 34.1942 57.3564 33.2461 57.7224 32.3616C58.0885 31.477 58.6257 30.6735 59.3031 29.9971C59.9806 29.3207 60.7849 28.7847 61.67 28.42V28.42C63.4568 27.679 65.4642 27.6754 67.2537 28.4099C69.0431 29.1444 70.4691 30.5574 71.22 32.34C71.5871 33.2237 71.7764 34.1711 71.7771 35.1281C71.7777 36.085 71.5897 37.0327 71.2237 37.9169C70.8578 38.8011 70.3211 39.6044 69.6444 40.281C68.9677 40.9576 68.1643 41.4942 67.28 41.86C66.3928 42.2297 65.4412 42.42 64.48 42.42V42.42ZM64.48 29.86C63.7931 29.8658 63.1138 30.005 62.48 30.27V30.27C61.8382 30.534 61.2548 30.9222 60.7634 31.4123C60.272 31.9024 59.8823 32.4847 59.6165 33.1258C59.3508 33.767 59.2143 34.4543 59.2149 35.1483C59.2155 35.8423 59.3532 36.5293 59.62 37.17C60.1674 38.4514 61.1966 39.4663 62.4856 39.9957C63.7745 40.5251 65.2199 40.5267 66.51 40C67.151 39.7349 67.7335 39.3461 68.2241 38.8558C68.7148 38.3655 69.104 37.7833 69.3696 37.1426C69.6352 36.5018 69.772 35.815 69.772 35.1213C69.7721 34.4277 69.6355 33.7408 69.37 33.1C68.962 32.1362 68.2783 31.3144 67.4047 30.7379C66.5311 30.1615 65.5066 29.856 64.46 29.86H64.48Z"
            fill="#D3A874" />
        <path id="Vector_24"
            d="M63 34C63.5523 34 64 33.5523 64 33C64 32.4477 63.5523 32 63 32C62.4477 32 62 32.4477 62 33C62 33.5523 62.4477 34 63 34Z"
            fill="#D3A874" />
        <path id="Vector_25"
            d="M63 39C63.5523 39 64 38.5523 64 38C64 37.4477 63.5523 37 63 37C62.4477 37 62 37.4477 62 38C62 38.5523 62.4477 39 63 39Z"
            fill="#D3A874" />
        <path id="Vector_26"
            d="M67 36C67.5523 36 68 35.5523 68 35C68 34.4477 67.5523 34 67 34C66.4477 34 66 34.4477 66 35C66 35.5523 66.4477 36 67 36Z"
            fill="#D3A874" />
    </g>
</svg>