<svg width="77" height="80" viewBox="0 0 77 80" fill="none" xmlns="http://www.w3.org/2000/svg">
    <rect width="77" height="80" fill="white" />
    <g id="sushi_3">
        <path id="Vector"
            d="M75.516 79.216C74.915 79.316 74.415 78.916 74.316 78.316L64.016 3.216C63.915 2.616 64.316 2.116 64.915 2.016C65.516 1.916 66.016 2.316 66.115 2.916L76.415 78.016C76.415 78.615 76.016 79.115 75.516 79.216Z"
            fill="#D4A975" />
    </g>
    <g id="sushi_2">
        <path id="Vector_2"
            d="M65.916 78.715C65.316 78.615 64.916 78.115 65.016 77.515L73.117 0.915002C73.217 0.315002 73.717 -0.0849984 74.317 0.0150016C74.917 0.115002 75.317 0.615002 75.216 1.215L67.016 77.815C67.015 78.315 66.515 78.815 65.916 78.715Z"
            fill="#D4A975" />
    </g>
    <g id="sushi_1">
        <g id="sushi_2 1" clip-path="url(#clip0)">
            <g id="&#208;&#161;&#208;&#187;&#208;&#190;&#208;&#185; 2">
                <g id="&#208;&#161;&#208;&#187;&#208;&#190;&#208;&#185; 1">
                    <path id="Vector_3"
                        d="M45.05 54H35.9C35.1223 53.9987 34.352 54.1514 33.6337 54.4493C32.9153 54.7472 32.263 55.1844 31.7145 55.7357C31.1659 56.287 30.732 56.9415 30.4378 57.6614C30.1435 58.3813 29.9947 59.1523 30 59.93V69.12C30.0013 69.8935 30.155 70.6591 30.4522 71.3732C30.7494 72.0874 31.1844 72.7359 31.7322 73.2819C32.2801 73.8279 32.9301 74.2607 33.6452 74.5555C34.3604 74.8503 35.1265 75.0013 35.9 75H45.05C46.6087 74.9947 48.1017 74.3718 49.2019 73.2678C50.3022 72.1638 50.92 70.6687 50.92 69.11V59.93C50.9022 58.3731 50.2799 56.8841 49.1846 55.7776C48.0892 54.6711 46.6066 54.0336 45.05 54ZM48.93 69.08C48.934 69.5925 48.8366 70.1008 48.6435 70.5755C48.4504 71.0503 48.1654 71.4823 47.8048 71.8465C47.4443 72.2108 47.0153 72.5002 46.5425 72.6982C46.0698 72.8961 45.5625 72.9987 45.05 73H35.9C35.3892 73.0013 34.8831 72.902 34.4106 72.7077C33.9382 72.5134 33.5086 72.228 33.1464 71.8677C32.7843 71.5074 32.4966 71.0793 32.2999 70.6079C32.1032 70.1364 32.0013 69.6308 32 69.12V59.93C31.9947 59.415 32.0918 58.904 32.2855 58.4268C32.4792 57.9495 32.7658 57.5155 33.1286 57.1499C33.4915 56.7843 33.9233 56.4944 34.399 56.297C34.8747 56.0996 35.3849 55.9986 35.9 56H45.05C45.5609 56.0013 46.0664 56.1032 46.5379 56.2999C47.0093 56.4966 47.4374 56.7843 47.7977 57.1464C48.158 57.5086 48.4435 57.9381 48.6377 58.4106C48.832 58.8831 48.9313 59.3892 48.93 59.9V69.08Z"
                        fill="#D3A874" />
                    <path id="Vector_4"
                        d="M40.48 57.74C39.116 57.7341 37.781 58.1331 36.644 58.8866C35.507 59.64 34.6192 60.714 34.0931 61.9725C33.567 63.2309 33.4263 64.6172 33.6888 65.9557C33.9512 67.2942 34.605 68.5247 35.5674 69.4913C36.5298 70.4578 37.7574 71.117 39.0948 71.3853C40.4321 71.6536 41.819 71.5189 43.0797 70.9984C44.3404 70.4778 45.4183 69.5947 46.1767 68.461C46.9351 67.3273 47.34 65.994 47.34 64.63C47.3119 62.8166 46.581 61.0849 45.3014 59.7997C44.0218 58.5145 42.2933 57.7761 40.48 57.74V57.74ZM37.79 65.43C37.3692 66.0094 37.1576 66.7146 37.19 67.43C37.19 67.73 37.29 68.03 37.29 68.33C36.7322 67.8891 36.2815 67.3276 35.9716 66.6877C35.6618 66.0478 35.5008 65.346 35.5008 64.635C35.5008 63.924 35.6618 63.2222 35.9716 62.5823C36.2815 61.9424 36.7322 61.3809 37.29 60.94C37.2019 61.2314 37.168 61.5364 37.19 61.84C37.206 62.5486 37.4133 63.2396 37.79 63.84C37.9917 64.0959 38.0978 64.4142 38.09 64.74C38.09 65.13 38 65.13 37.79 65.43ZM41.17 66.53C41.3647 66.7896 41.47 67.1054 41.47 67.43C41.47 67.7546 41.3647 68.0704 41.17 68.33C40.9255 68.6561 40.7549 69.0314 40.67 69.43H40C39.9151 69.0314 39.7445 68.6561 39.5 68.33C39.3053 68.0704 39.2 67.7546 39.2 67.43C39.2 67.1054 39.3053 66.7896 39.5 66.53C39.9208 65.9506 40.1324 65.2454 40.1 64.53C40.0835 63.8215 39.8762 63.1306 39.5 62.53C39.3053 62.2704 39.2 61.9546 39.2 61.63C39.2 61.3054 39.3053 60.9896 39.5 60.73C39.7445 60.4039 39.9151 60.0286 40 59.63H40.7C40.7849 60.0286 40.9555 60.4039 41.2 60.73C41.3947 60.9896 41.5 61.3054 41.5 61.63C41.5 61.9546 41.3947 62.2704 41.2 62.53C40.7792 63.1094 40.5676 63.8146 40.6 64.53C40.6088 65.2324 40.8056 65.9195 41.17 66.52V66.53ZM43.36 68.43C43.4833 68.1105 43.5509 67.7723 43.56 67.43C43.544 66.7214 43.3367 66.0304 42.96 65.43C42.7653 65.1704 42.66 64.8546 42.66 64.53C42.66 64.2054 42.7653 63.8896 42.96 63.63C43.3808 63.0506 43.5924 62.3454 43.56 61.63C43.5509 61.2877 43.4833 60.9495 43.36 60.63C43.9422 61.0986 44.4119 61.6917 44.7346 62.3658C45.0574 63.0398 45.2249 63.7777 45.2249 64.525C45.2249 65.2723 45.0574 66.0102 44.7346 66.6842C44.4119 67.3583 43.9422 67.9514 43.36 68.42V68.43Z"
                        fill="#D3A874" />
                    <path id="Vector_5"
                        d="M44.36 5.1H33.81C32.0401 5.1053 30.3446 5.81279 29.0959 7.06712C27.8472 8.32145 27.1473 10.0201 27.15 11.79V22.38C27.1473 24.1499 27.8472 25.8485 29.0959 27.1029C30.3446 28.3572 32.0401 29.0647 33.81 29.07H44.36C46.1264 29.0594 47.8168 28.3496 49.0612 27.0958C50.3056 25.8421 51.0027 24.1465 51 22.38V11.79C51.0027 10.0235 50.3056 8.32792 49.0612 7.07416C47.8168 5.8204 46.1264 5.11057 44.36 5.1V5.1ZM49 22.38C49.0013 22.9946 48.8816 23.6034 48.6476 24.1717C48.4136 24.74 48.07 25.2567 47.6363 25.6922C47.2027 26.1277 46.6875 26.4735 46.1202 26.7099C45.5529 26.9463 44.9446 27.0687 44.33 27.07H33.81C33.1954 27.0687 32.5871 26.9463 32.0198 26.7099C31.4525 26.4735 30.9373 26.1277 30.5037 25.6922C30.07 25.2567 29.7264 24.74 29.4924 24.1717C29.2584 23.6034 29.1387 22.9946 29.14 22.38V11.79C29.1387 11.1754 29.2584 10.5666 29.4924 9.99828C29.7264 9.42997 30.07 8.91331 30.5037 8.47781C30.9373 8.0423 31.4525 7.69647 32.0198 7.46007C32.5871 7.22366 33.1954 7.10131 33.81 7.1H44.36C45.596 7.11056 46.7776 7.60966 47.647 8.48835C48.5163 9.36704 49.0027 10.554 49 11.79V22.38Z"
                        fill="#D3A874" />
                    <path id="Vector_6"
                        d="M39.09 24.78C37.0505 24.78 35.0945 23.9698 33.6524 22.5277C32.2102 21.0855 31.4 19.1295 31.4 17.09C31.4 15.0505 32.2102 13.0945 33.6524 11.6524C35.0945 10.2102 37.0505 9.4 39.09 9.4C40.1225 9.40291 41.1441 9.61132 42.0953 10.0131C43.0464 10.4148 43.9081 11.0019 44.63 11.74C45.3278 12.4475 45.8754 13.2888 46.2397 14.2134C46.604 15.138 46.7776 16.1266 46.75 17.12C46.7447 19.1499 45.936 21.0952 44.5006 22.5306C43.0652 23.966 41.1199 24.7747 39.09 24.78V24.78ZM39.09 11.4C37.9634 11.3941 36.8603 11.7227 35.9207 12.3443C34.981 12.9659 34.2471 13.8525 33.8118 14.8917C33.3765 15.9308 33.2596 17.0758 33.4757 18.1816C33.6919 19.2873 34.2314 20.3039 35.026 21.1027C35.8205 21.9015 36.8343 22.4464 37.9389 22.6684C39.0434 22.8904 40.189 22.7795 41.2305 22.3497C42.272 21.9199 43.1624 21.1906 43.7889 20.2543C44.4155 19.3179 44.75 18.2167 44.75 17.09C44.778 16.3528 44.655 15.6177 44.3884 14.9298C44.1219 14.2419 43.7174 13.6158 43.2 13.09C42.6615 12.5488 42.0209 12.1199 41.3154 11.8281C40.6099 11.5363 39.8535 11.3874 39.09 11.39V11.4Z"
                        fill="#D3A874" />
                    <path id="Vector_7"
                        d="M6.76 5C4.99009 5.0053 3.29462 5.71279 2.04591 6.96712C0.797208 8.22145 0.0973409 9.92008 0.0999984 11.69V22.48C0.0973409 24.2499 0.797208 25.9485 2.04591 27.2029C3.29462 28.4572 4.99009 29.1647 6.76 29.17H17.5C19.2699 29.1647 20.9654 28.4572 22.2141 27.2029C23.4628 25.9485 24.1627 24.2499 24.16 22.48V11.69C24.1627 9.92008 23.4628 8.22145 22.2141 6.96712C20.9654 5.71279 19.2699 5.0053 17.5 5L6.76 5ZM22.28 11.69V14.49H20.79C20.6564 14.4812 20.5224 14.501 20.3971 14.5481C20.2718 14.5952 20.1579 14.6686 20.0633 14.7633C19.9686 14.858 19.8952 14.9718 19.8481 15.0971C19.801 15.2224 19.7812 15.3564 19.79 15.49C19.7812 15.6236 19.801 15.7576 19.8481 15.8829C19.8952 16.0082 19.9686 16.122 20.0633 16.2167C20.1579 16.3114 20.2718 16.3848 20.3971 16.4319C20.5224 16.479 20.6564 16.4988 20.79 16.49H22.28V22.38C22.2813 22.9946 22.1616 23.6034 21.9276 24.1717C21.6936 24.74 21.35 25.2567 20.9163 25.6922C20.4827 26.1277 19.9675 26.4735 19.4002 26.7099C18.8329 26.9463 18.2246 27.0687 17.61 27.07V25.37C17.61 25.1048 17.5046 24.8504 17.3171 24.6629C17.1296 24.4754 16.8752 24.37 16.61 24.37C16.3448 24.37 16.0904 24.4754 15.9029 24.6629C15.7154 24.8504 15.61 25.1048 15.61 25.37V27.07H6.86C5.98828 27.0783 5.13222 26.8382 4.39197 26.3778C3.65173 25.9173 3.05791 25.2556 2.68 24.47C2.76765 24.5681 2.87576 24.6459 2.9967 24.6977C3.11765 24.7495 3.24848 24.7742 3.38 24.77C3.51151 24.7742 3.64235 24.7495 3.76329 24.6977C3.88424 24.6459 3.99234 24.5681 4.08 24.47L5.37 23.17C5.55323 22.9831 5.65586 22.7318 5.65586 22.47C5.65586 22.2082 5.55323 21.9569 5.37 21.77C5.18353 21.5898 4.93434 21.489 4.675 21.489C4.41566 21.489 4.16646 21.5898 3.98 21.77L2.69 23.07C2.60277 23.1452 2.53134 23.2369 2.47984 23.3399C2.42835 23.4429 2.39781 23.5551 2.39 23.67C2.26728 23.2472 2.20005 22.8102 2.19 22.37V11.69C2.16529 10.7172 2.47996 9.76611 3.08 9L3.97 9.9C4.15864 10.0825 4.40777 10.1892 4.67 10.2C4.93223 10.1892 5.18135 10.0825 5.37 9.9C5.55323 9.71307 5.65586 9.46175 5.65586 9.2C5.65586 8.93825 5.55323 8.68693 5.37 8.5L4.57 7.7C5.30227 7.2523 6.14177 7.01046 7 7H12V7.8C12 8.06522 12.1054 8.31957 12.2929 8.50711C12.4804 8.69464 12.7348 8.8 13 8.8C13.2652 8.8 13.5196 8.69464 13.7071 8.50711C13.8946 8.31957 14 8.06522 14 7.8V7H17.5C18.7539 6.9946 19.9592 7.48414 20.8542 8.36229C21.7492 9.24044 22.2616 10.4363 22.28 11.69V11.69Z"
                        fill="#D3A874" />
                    <path id="Vector_8"
                        d="M9.85001 9.69L8.65001 8.5C8.46354 8.31976 8.21435 8.21901 7.95501 8.21901C7.69567 8.21901 7.44647 8.31976 7.26001 8.5C7.07678 8.68693 6.97415 8.93825 6.97415 9.2C6.97415 9.46175 7.07678 9.71307 7.26001 9.9L7.96001 10.6C7.52013 10.8782 7.11984 11.2146 6.77001 11.6C6.03277 12.3512 5.451 13.2404 5.05804 14.2168C4.66508 15.1932 4.46865 16.2376 4.48001 17.29H3.68001C3.41479 17.29 3.16044 17.3954 2.9729 17.5829C2.78536 17.7704 2.68001 18.0248 2.68001 18.29C2.68001 18.5552 2.78536 18.8096 2.9729 18.9971C3.16044 19.1846 3.41479 19.29 3.68001 19.29H4.77001C5.16222 20.5101 5.80609 21.6343 6.66001 22.59C6.9312 22.8837 7.22915 23.1515 7.55001 23.39L6.55001 24.39C6.36678 24.5769 6.26415 24.8282 6.26415 25.09C6.26415 25.3518 6.36678 25.6031 6.55001 25.79C6.73865 25.9725 6.98778 26.0792 7.25001 26.09C7.51224 26.0792 7.76136 25.9725 7.95001 25.79L9.24001 24.49C9.34001 24.39 9.34001 24.39 9.34001 24.29C10.2328 24.6087 11.1721 24.7777 12.12 24.79C13.1382 24.7847 14.1453 24.5789 15.0839 24.1843C16.0224 23.7896 16.874 23.2139 17.59 22.49C19.029 21.0209 19.8349 19.0464 19.8349 16.99C19.8349 14.9336 19.029 12.9591 17.59 11.49C16.5855 10.5146 15.334 9.83155 13.9701 9.51439C12.6063 9.19723 11.1819 9.25794 9.85001 9.69V9.69ZM16.22 21.18C15.6897 21.7255 15.0554 22.1592 14.3546 22.4553C13.6538 22.7514 12.9008 22.9039 12.14 22.9039C11.3792 22.9039 10.6262 22.7514 9.92538 22.4553C9.22459 22.1592 8.59029 21.7255 8.06001 21.18C7.5188 20.6452 7.08912 20.0083 6.79586 19.3062C6.5026 18.6042 6.35159 17.8509 6.35159 17.09C6.35159 16.3291 6.5026 15.5758 6.79586 14.8738C7.08912 14.1717 7.5188 13.5348 8.06001 13C8.59029 12.4545 9.22459 12.0208 9.92538 11.7247C10.6262 11.4286 11.3792 11.2761 12.14 11.2761C12.9008 11.2761 13.6538 11.4286 14.3546 11.7247C15.0554 12.0208 15.6897 12.4545 16.22 13C16.7606 13.5355 17.1895 14.1729 17.4819 14.8753C17.7743 15.5777 17.9244 16.3312 17.9234 17.0921C17.9225 17.853 17.7706 18.6061 17.4764 19.3078C17.1823 20.0095 16.7519 20.6459 16.21 21.18H16.22Z"
                        fill="#D3A874" />
                    <path id="Vector_9"
                        d="M14.92 8.5C14.9112 8.63361 14.931 8.76756 14.9781 8.8929C15.0252 9.01823 15.0986 9.13205 15.1933 9.22673C15.288 9.32141 15.4018 9.39477 15.5271 9.4419C15.6524 9.48903 15.7864 9.50884 15.92 9.5H17.7C17.8336 9.50884 17.9676 9.48903 18.0929 9.4419C18.2182 9.39477 18.3321 9.32141 18.4267 9.22673C18.5214 9.13205 18.5948 9.01823 18.6419 8.8929C18.689 8.76756 18.7088 8.63361 18.7 8.5C18.7088 8.36639 18.689 8.23243 18.6419 8.1071C18.5948 7.98177 18.5214 7.86795 18.4267 7.77327C18.3321 7.67859 18.2182 7.60522 18.0929 7.5581C17.9676 7.51097 17.8336 7.49116 17.7 7.5H15.91C15.652 7.51883 15.4095 7.63051 15.2275 7.81437C15.0455 7.99822 14.9362 8.2418 14.92 8.5Z"
                        fill="#D3A874" />
                    <path id="Vector_10"
                        d="M19.49 22.48C19.3035 22.2998 19.0543 22.199 18.795 22.199C18.5357 22.199 18.2865 22.2998 18.1 22.48C17.9168 22.6669 17.8141 22.9182 17.8141 23.18C17.8141 23.4418 17.9168 23.6931 18.1 23.88L19.39 25.18C19.5765 25.3602 19.8257 25.461 20.085 25.461C20.3443 25.461 20.5935 25.3602 20.78 25.18C20.9632 24.9931 21.0659 24.7418 21.0659 24.48C21.0659 24.2182 20.9632 23.9669 20.78 23.78L19.49 22.48Z"
                        fill="#D3A874" />
                    <path id="Vector_11"
                        d="M45.05 31H35.8C34.2087 31 32.6826 31.6321 31.5574 32.7574C30.4321 33.8826 29.8 35.4087 29.8 37V46.29C29.8 47.8813 30.4321 49.4074 31.5574 50.5326C32.6826 51.6579 34.2087 52.29 35.8 52.29H45.05C46.6413 52.29 48.1674 51.6579 49.2926 50.5326C50.4179 49.4074 51.05 47.8813 51.05 46.29V37C51.05 35.4087 50.4179 33.8826 49.2926 32.7574C48.1674 31.6321 46.6413 31 45.05 31ZM49.05 46.28C49.05 47.3409 48.6286 48.3583 47.8784 49.1084C47.1283 49.8586 46.1109 50.28 45.05 50.28H35.8C34.7391 50.28 33.7217 49.8586 32.9716 49.1084C32.2214 48.3583 31.8 47.3409 31.8 46.28V37C31.8 35.9391 32.2214 34.9217 32.9716 34.1716C33.7217 33.4214 34.7391 33 35.8 33H45.05C46.1109 33 47.1283 33.4214 47.8784 34.1716C48.6286 34.9217 49.05 35.9391 49.05 37V46.28Z"
                        fill="#D3A874" />
                    <path id="Vector_12"
                        d="M40.48 35.56C39.2933 35.56 38.1333 35.9119 37.1466 36.5712C36.1599 37.2305 35.3908 38.1675 34.9367 39.2639C34.4826 40.3603 34.3638 41.5667 34.5953 42.7305C34.8268 43.8944 35.3982 44.9635 36.2374 45.8026C37.0765 46.6418 38.1456 47.2132 39.3095 47.4447C40.4733 47.6762 41.6797 47.5574 42.7761 47.1033C43.8725 46.6491 44.8095 45.8801 45.4688 44.8934C46.1281 43.9067 46.48 42.7467 46.48 41.56C46.48 39.9687 45.8479 38.4426 44.7226 37.3174C43.5974 36.1921 42.0713 35.56 40.48 35.56V35.56ZM39.48 45.45C38.6169 45.2272 37.8529 44.7224 37.3094 44.0158C36.7659 43.3093 36.474 42.4414 36.48 41.55C36.4859 40.6616 36.7823 39.7995 37.3239 39.0953C37.8656 38.3911 38.6228 37.8835 39.48 37.65V45.45ZM41.48 45.45V37.66C42.3589 37.8654 43.1425 38.3621 43.7034 39.0692C44.2643 39.7764 44.5695 40.6524 44.5695 41.555C44.5695 42.4576 44.2643 43.3336 43.7034 44.0408C43.1425 44.7479 42.3589 45.2446 41.48 45.45V45.45Z"
                        fill="#D3A874" />
                    <path id="Vector_13"
                        d="M21.48 32.47C20.1737 32.4561 18.8928 32.8308 17.7999 33.5464C16.707 34.2621 15.8515 35.2864 15.342 36.4892C14.8324 37.6921 14.6919 39.0193 14.9382 40.3022C15.1845 41.5851 15.8066 42.7659 16.7254 43.6945C17.6441 44.6232 18.8182 45.2578 20.0984 45.5178C21.3786 45.7778 22.7072 45.6514 23.9155 45.1548C25.1237 44.6581 26.1571 43.8136 26.8843 42.7284C27.6116 41.6432 27.9999 40.3663 28 39.06C28.0053 37.3227 27.3224 35.654 26.1005 34.419C24.8786 33.184 23.2173 32.4832 21.48 32.47V32.47ZM21.48 43.76C20.8782 43.76 20.2823 43.6411 19.7265 43.4102C19.1708 43.1793 18.6661 42.8409 18.2414 42.4144C17.8168 41.9879 17.4806 41.4818 17.2521 40.925C17.0236 40.3682 16.9074 39.7718 16.91 39.17C16.914 38.267 17.1853 37.3854 17.6899 36.6365C18.1945 35.8876 18.9096 35.305 19.745 34.9622C20.5804 34.6193 21.4986 34.5317 22.3838 34.7103C23.2689 34.8889 24.0814 35.3257 24.7185 35.9656C25.3556 36.6055 25.7889 37.4198 25.9636 38.3058C26.1383 39.1917 26.0467 40.1096 25.7002 40.9435C25.3537 41.7773 24.768 42.4899 24.0169 42.9912C23.2658 43.4925 22.383 43.76 21.48 43.76V43.76Z"
                        fill="#D3A874" />
                    <path id="Vector_14"
                        d="M21.48 36.16C20.9056 36.156 20.343 36.3227 19.8634 36.639C19.3839 36.9552 19.0091 37.4067 18.7865 37.9363C18.564 38.4658 18.5037 39.0495 18.6133 39.6134C18.7229 40.1773 18.9975 40.6959 19.4023 41.1034C19.8071 41.511 20.3238 41.7892 20.8868 41.9027C21.4499 42.0163 22.034 41.96 22.5651 41.7411C23.0962 41.5222 23.5503 41.1505 23.8698 40.6732C24.1894 40.1959 24.36 39.6344 24.36 39.06C24.3613 38.6805 24.2879 38.3044 24.1438 37.9533C23.9998 37.6021 23.788 37.2828 23.5206 37.0135C23.2532 36.7442 22.9353 36.5303 22.5852 36.3838C22.2351 36.2374 21.8595 36.1613 21.48 36.16V36.16ZM21.48 40.06C21.302 40.06 21.128 40.0072 20.98 39.9083C20.832 39.8094 20.7166 39.6689 20.6485 39.5044C20.5804 39.34 20.5626 39.159 20.5973 38.9844C20.632 38.8098 20.7177 38.6495 20.8436 38.5236C20.9695 38.3977 21.1298 38.312 21.3044 38.2773C21.479 38.2426 21.66 38.2604 21.8244 38.3285C21.9889 38.3966 22.1294 38.512 22.2283 38.66C22.3272 38.808 22.38 38.982 22.38 39.16C22.3813 39.2786 22.359 39.3962 22.3142 39.506C22.2695 39.6158 22.2032 39.7155 22.1194 39.7994C22.0355 39.8832 21.9358 39.9495 21.826 39.9942C21.7162 40.039 21.5986 40.0613 21.48 40.06V40.06Z"
                        fill="#D3A874" />
                    <path id="Vector_15"
                        d="M21.48 47.45C20.172 47.4361 18.8895 47.8118 17.7958 48.5292C16.702 49.2466 15.8465 50.2733 15.3382 51.4785C14.8298 52.6838 14.6916 54.013 14.9412 55.297C15.1908 56.581 15.8168 57.7617 16.7396 58.6888C17.6624 59.6158 18.8402 60.2473 20.1231 60.5027C21.4059 60.7582 22.7358 60.6261 23.9433 60.1233C25.1509 59.6205 26.1815 58.7697 26.9039 57.6792C27.6263 56.5888 28.0079 55.308 28 54C27.9948 52.2696 27.3071 50.6112 26.0864 49.3848C24.8656 48.1584 23.2103 47.4632 21.48 47.45V47.45ZM21.48 58.74C20.8782 58.74 20.2823 58.6211 19.7265 58.3902C19.1708 58.1593 18.6661 57.8209 18.2414 57.3944C17.8168 56.9679 17.4806 56.4618 17.2521 55.905C17.0236 55.3482 16.9074 54.7518 16.91 54.15C16.914 53.247 17.1853 52.3654 17.6899 51.6165C18.1945 50.8676 18.9096 50.285 19.745 49.9422C20.5804 49.5993 21.4986 49.5117 22.3838 49.6903C23.2689 49.8688 24.0814 50.3057 24.7185 50.9456C25.3556 51.5855 25.7889 52.3998 25.9636 53.2858C26.1383 54.1717 26.0467 55.0896 25.7002 55.9235C25.3537 56.7573 24.768 57.4699 24.0169 57.9712C23.2658 58.4725 22.383 58.74 21.48 58.74V58.74Z"
                        fill="#D3A874" />
                    <path id="Vector_16"
                        d="M21.48 51.14C20.9043 51.1381 20.3411 51.3075 19.862 51.6268C19.383 51.946 19.0098 52.4006 18.79 52.9327C18.5702 53.4648 18.5137 54.0502 18.6278 54.6145C18.7418 55.1788 19.0212 55.6963 19.4304 56.1013C19.8396 56.5062 20.36 56.7802 20.9255 56.8883C21.4909 56.9965 22.0757 56.9339 22.6055 56.7086C23.1352 56.4832 23.5859 56.1053 23.9001 55.6229C24.2144 55.1406 24.3779 54.5756 24.37 54C24.3621 53.2387 24.0541 52.5113 23.513 51.9758C22.9719 51.4403 22.2413 51.14 21.48 51.14ZM21.48 55.04C21.302 55.04 21.128 54.9872 20.98 54.8883C20.832 54.7894 20.7166 54.6489 20.6485 54.4844C20.5804 54.32 20.5626 54.139 20.5973 53.9644C20.632 53.7898 20.7177 53.6295 20.8436 53.5036C20.9695 53.3777 21.1298 53.292 21.3044 53.2573C21.479 53.2226 21.66 53.2404 21.8244 53.3085C21.9889 53.3766 22.1294 53.492 22.2283 53.64C22.3272 53.788 22.38 53.962 22.38 54.14C22.3722 54.3725 22.2736 54.5928 22.1054 54.7535C21.9372 54.9143 21.7127 55.0027 21.48 55V55.04Z"
                        fill="#D3A874" />
                    <path id="Vector_17"
                        d="M6.56001 32.47C5.25537 32.4641 3.97832 32.8455 2.89066 33.566C1.803 34.2865 0.953677 35.3136 0.450292 36.5173C-0.0530929 37.7209 -0.187885 39.0469 0.0629938 40.3272C0.313872 41.6075 0.939131 42.7845 1.85955 43.7091C2.77998 44.6338 3.95414 45.2644 5.23329 45.5211C6.51243 45.7778 7.839 45.6491 9.04491 45.1512C10.2508 44.6533 11.2818 43.8087 12.0073 42.7243C12.7327 41.6399 13.12 40.3647 13.12 39.06C13.1226 38.1964 12.955 37.3407 12.6266 36.5419C12.2982 35.7432 11.8156 35.017 11.2063 34.4049C10.597 33.7928 9.87305 33.3069 9.07579 32.9749C8.27853 32.6429 7.42363 32.4713 6.56001 32.47V32.47ZM6.56001 43.76C5.95817 43.7587 5.36253 43.6385 4.80726 43.4064C4.252 43.1743 3.74805 42.8348 3.32435 42.4073C2.90065 41.9799 2.56555 41.473 2.33828 40.9158C2.11101 40.3585 1.99605 39.7618 2.00001 39.16C2.01291 37.9501 2.49791 36.7931 3.35161 35.9357C4.20531 35.0782 5.36018 34.5882 6.57001 34.57C7.77983 34.5882 8.9347 35.0782 9.7884 35.9357C10.6421 36.7931 11.1271 37.9501 11.14 39.16C11.1426 39.7627 11.0261 40.3599 10.7969 40.9173C10.5678 41.4747 10.2307 41.9813 9.80505 42.408C9.37936 42.8346 8.8735 43.1728 8.31658 43.4031C7.75965 43.6334 7.16267 43.7513 6.56001 43.75V43.76Z"
                        fill="#D3A874" />
                    <path id="Vector_18"
                        d="M6.56 36.16C5.9856 36.156 5.42296 36.3227 4.94343 36.639C4.46391 36.9552 4.0891 37.4067 3.86653 37.9363C3.64397 38.4658 3.58368 39.0495 3.69331 39.6134C3.80293 40.1773 4.07754 40.6959 4.48231 41.1034C4.88707 41.511 5.40376 41.7892 5.96684 41.9027C6.52993 42.0163 7.11404 41.96 7.64511 41.7411C8.17619 41.5222 8.63029 41.1505 8.94984 40.6732C9.26939 40.1959 9.43999 39.6344 9.44 39.06C9.44132 38.6805 9.36787 38.3044 9.22384 37.9533C9.07982 37.6021 8.86805 37.2828 8.60062 37.0135C8.33318 36.7442 8.01533 36.5303 7.6652 36.3838C7.31507 36.2374 6.93952 36.1613 6.56 36.16V36.16ZM6.56 40.06C6.382 40.06 6.20799 40.0072 6.05999 39.9083C5.91198 39.8094 5.79663 39.6689 5.72851 39.5044C5.66039 39.34 5.64257 39.159 5.67729 38.9844C5.71202 38.8098 5.79774 38.6495 5.9236 38.5236C6.04947 38.3977 6.20984 38.312 6.38442 38.2773C6.559 38.2426 6.73996 38.2604 6.90442 38.3285C7.06887 38.3966 7.20943 38.512 7.30832 38.66C7.40722 38.808 7.46 38.982 7.46 39.16C7.46134 39.2786 7.43898 39.3962 7.39422 39.506C7.34947 39.6158 7.28322 39.7155 7.19938 39.7994C7.11554 39.8832 7.01579 39.9495 6.90599 39.9942C6.7962 40.039 6.67856 40.0613 6.56 40.06V40.06Z"
                        fill="#D3A874" />
                    <path id="Vector_19"
                        d="M6.56 47.45C5.25408 47.4461 3.97643 47.8302 2.88923 48.5537C1.80203 49.2772 0.954296 50.3074 0.453639 51.5135C-0.0470178 52.7197 -0.178024 54.0474 0.0772478 55.3281C0.33252 56.6089 0.96256 57.7849 1.8874 58.7069C2.81223 59.6289 3.99016 60.2554 5.27167 60.5067C6.55318 60.7581 7.88048 60.6231 9.08509 60.1187C10.2897 59.6144 11.3173 58.7635 12.0375 57.6741C12.7577 56.5847 13.1379 55.3059 13.13 54C13.1247 52.261 12.4302 50.595 11.1986 49.3672C9.9671 48.1394 8.29901 47.45 6.56 47.45ZM6.56 58.74C5.95817 58.7387 5.36252 58.6185 4.80726 58.3864C4.25199 58.1543 3.74804 57.8148 3.32434 57.3873C2.90065 56.9599 2.56554 56.453 2.33827 55.8958C2.11101 55.3385 1.99605 54.7418 2 54.14C2.0129 52.9301 2.4979 51.7731 3.35161 50.9157C4.20531 50.0582 5.36018 49.5682 6.57 49.55C7.77983 49.5682 8.93469 50.0582 9.7884 50.9157C10.6421 51.7731 11.1271 52.9301 11.14 54.14C11.1426 54.7427 11.026 55.3399 10.7969 55.8973C10.5678 56.4547 10.2307 56.9613 9.80505 57.388C9.37936 57.8146 8.87349 58.1528 8.31657 58.3831C7.75965 58.6134 7.16267 58.7313 6.56 58.73V58.74Z"
                        fill="#D3A874" />
                    <path id="Vector_20"
                        d="M6.56001 51.14C5.98433 51.1381 5.4211 51.3075 4.94205 51.6268C4.463 51.946 4.08981 52.4006 3.87 52.9327C3.65019 53.4648 3.59372 54.0502 3.70776 54.6145C3.82181 55.1788 4.10121 55.6963 4.5104 56.1013C4.91959 56.5062 5.44004 56.7802 6.00547 56.8883C6.5709 56.9965 7.15573 56.9339 7.68548 56.7086C8.21522 56.4832 8.66591 56.1053 8.98015 55.6229C9.29438 55.1406 9.45795 54.5756 9.45001 54C9.44211 53.2387 9.13414 52.5113 8.59301 51.9758C8.05189 51.4403 7.32132 51.14 6.56001 51.14V51.14ZM6.56001 55.04C6.38201 55.04 6.208 54.9872 6.06 54.8883C5.91199 54.7894 5.79664 54.6489 5.72852 54.4844C5.6604 54.32 5.64258 54.139 5.6773 53.9644C5.71203 53.7898 5.79775 53.6295 5.92361 53.5036C6.04948 53.3777 6.20985 53.292 6.38443 53.2573C6.55901 53.2226 6.73997 53.2404 6.90442 53.3085C7.06888 53.3766 7.20944 53.492 7.30833 53.64C7.40723 53.788 7.46001 53.962 7.46001 54.14C7.45218 54.3725 7.3536 54.5928 7.18538 54.7535C7.01715 54.9143 6.79267 55.0027 6.56001 55V55.04Z"
                        fill="#D3A874" />
                    <path id="Vector_21"
                        d="M11.26 76.68C5.09 76.68 0.770004 74 0.770004 70.1C0.770004 66.2 5.08 63.53 11.26 63.53C16.18 63.53 27.72 65.77 27.72 70.1C27.72 74.43 16.19 76.68 11.26 76.68ZM11.26 65.53C6.41 65.53 2.76 67.53 2.76 70.11C2.76 72.69 6.42 74.69 11.26 74.69C17.83 74.69 25.73 71.88 25.73 70.11C25.73 68.34 17.83 65.53 11.26 65.53V65.53Z"
                        fill="#D3A874" />
                    <path id="Vector_22"
                        d="M5.8 75.57C3.39 71.94 6.46 65.15 6.8 64.39L8.6 65.24C7.78 67 5.93 72.17 7.46 74.46L5.8 75.57Z"
                        fill="#D3A874" />
                    <path id="Vector_23"
                        d="M9.82 75.76C7.41 72.13 10.48 65.34 10.82 64.58L12.62 65.43C11.78 67.22 9.94 72.36 11.46 74.65L9.82 75.76Z"
                        fill="#D3A874" />
                    <path id="Vector_24"
                        d="M13.83 75.95C11.41 72.32 14.49 65.53 14.83 64.77L16.63 65.62C15.79 67.41 13.95 72.55 15.47 74.84L13.83 75.95Z"
                        fill="#D3A874" />
                    <path id="Vector_25"
                        d="M17.82 75.1C15.82 71.67 18.54 65.63 18.82 64.95L20.61 65.81C19.86 67.38 18.2 71.94 19.48 74.07L17.82 75.1Z"
                        fill="#D3A874" />
                    <path id="Vector_26"
                        d="M21.78 73.17C20.36 69.81 22.88 66.42 22.99 66.27L24.57 67.48L23.78 66.88L24.57 67.48C24.57 67.48 22.64 70.11 23.57 72.39L21.78 73.17Z"
                        fill="#D3A874" />
                    <path id="Vector_27" d="M45.26 16.09H32.95V18.09H45.26V16.09Z" fill="#D3A874" />
                    <path id="Vector_28" d="M45.53 19.09H32.53V21.09H45.53V19.09Z" fill="#D3A874" />
                    <path id="Vector_29" d="M44.53 13.09H33.62V15.09H44.53V13.09Z" fill="#D3A874" />
                </g>
            </g>
        </g>
    </g>
</svg>