<svg xmlns="http://www.w3.org/2000/svg" width="100" height="100" viewBox="0 0 100 100" fill="none">
<path d="M91.8414 90.9828C91.0668 91.0954 90.4224 90.6448 90.2948 89.9689L77.0201 5.36905C76.8899 4.69315 77.4067 4.1299 78.1787 4.01725C78.9533 3.9046 79.5977 4.3552 79.7253 5.0311L93 89.631C93 90.3057 92.4858 90.869 91.8414 90.9828Z" fill="#D4A975"/>
<path d="M79.2174 95.9861C78.4194 95.8781 77.8874 95.3383 78.0204 94.6905L88.7948 11.9882C88.9278 11.3404 89.5929 10.9086 90.3909 11.0165C91.1889 11.1245 91.7209 11.6643 91.5866 12.3121L80.6804 95.0144C80.6791 95.5542 80.0141 96.0941 79.2174 95.9861Z" fill="#D4A975"/>
<path d="M56.088 66.3395H45.3197C44.4045 66.338 43.498 66.5115 42.6526 66.8499C41.8072 67.1882 41.0395 67.6849 40.394 68.3111C39.7484 68.9373 39.2377 69.6808 38.8915 70.4985C38.5452 71.3163 38.3701 72.192 38.3763 73.0754V83.5145C38.3778 84.3931 38.5587 85.2628 38.9085 86.0739C39.2582 86.8852 39.7702 87.6218 40.4148 88.242C41.0596 88.8622 41.8246 89.3538 42.6662 89.6887C43.5078 90.0236 44.4094 90.1951 45.3197 90.1936H56.088C57.9223 90.1876 59.6794 89.48 60.9741 88.226C62.269 86.972 62.9961 85.2737 62.9961 83.5031V73.0754C62.9752 71.3069 62.2428 69.6156 60.9538 68.3587C59.6647 67.1018 57.9199 66.3777 56.088 66.3395ZM60.6542 83.469C60.6589 84.0512 60.5442 84.6286 60.317 85.1678C60.0897 85.7071 59.7543 86.1978 59.33 86.6115C58.9057 87.0253 58.4008 87.3541 57.8444 87.579C57.2881 87.8038 56.6911 87.9203 56.088 87.9218H45.3197C44.7186 87.9233 44.123 87.8105 43.5669 87.5898C43.011 87.3691 42.5054 87.0449 42.0791 86.6356C41.653 86.2263 41.3144 85.7401 41.0829 85.2046C40.8515 84.669 40.7315 84.0947 40.73 83.5145V73.0754C40.7238 72.4904 40.838 71.91 41.066 71.3679C41.2939 70.8258 41.6312 70.3328 42.0582 69.9175C42.4853 69.5022 42.9934 69.1729 43.5533 68.9487C44.1131 68.7244 44.7135 68.6097 45.3197 68.6113H56.088C56.6892 68.6128 57.2841 68.7285 57.839 68.952C58.3938 69.1754 58.8976 69.5022 59.3216 69.9135C59.7456 70.3249 60.0816 70.8128 60.3102 71.3495C60.5388 71.8863 60.6557 72.4611 60.6542 73.0414V83.469Z" fill="#D3A874"/>
<path d="M50.7097 70.5878C49.1045 70.5811 47.5334 71.0343 46.1953 71.8902C44.8572 72.746 43.8124 73.966 43.1932 75.3955C42.5741 76.825 42.4085 78.3997 42.7174 79.9201C43.0262 81.4405 43.7957 82.8382 44.9283 83.9362C46.0609 85.0341 47.5056 85.7829 49.0795 86.0876C50.6533 86.3924 52.2855 86.2394 53.7692 85.6481C55.2528 85.0568 56.5214 84.0537 57.4139 82.7659C58.3064 81.4781 58.7829 79.9636 58.7829 78.4142C58.7498 76.3543 57.8897 74.3873 56.3838 72.9274C54.8779 71.4675 52.8437 70.6288 50.7097 70.5878ZM47.5439 79.3229C47.0487 79.9811 46.7997 80.7821 46.8378 81.5948C46.8378 81.9355 46.9555 82.2763 46.9555 82.6171C46.2991 82.1163 45.7687 81.4784 45.404 80.7516C45.0394 80.0247 44.8499 79.2275 44.8499 78.4199C44.8499 77.6123 45.0394 76.8151 45.404 76.0882C45.7687 75.3613 46.2991 74.7235 46.9555 74.2227C46.8518 74.5537 46.8119 74.9002 46.8378 75.245C46.8567 76.0499 47.1006 76.8348 47.5439 77.5168C47.7813 77.8075 47.9062 78.1691 47.897 78.5392C47.897 78.9822 47.7911 78.9822 47.5439 79.3229ZM51.5217 80.5724C51.7508 80.8673 51.8748 81.226 51.8748 81.5948C51.8748 81.9635 51.7508 82.3222 51.5217 82.6171C51.234 82.9875 51.0332 83.4138 50.9333 83.8666H50.1448C50.0449 83.4138 49.8441 82.9875 49.5564 82.6171C49.3272 82.3222 49.2033 81.9635 49.2033 81.5948C49.2033 81.226 49.3272 80.8673 49.5564 80.5724C50.0516 79.9143 50.3006 79.1132 50.2625 78.3006C50.2431 77.4958 49.9991 76.711 49.5564 76.0288C49.3272 75.7339 49.2033 75.3752 49.2033 75.0065C49.2033 74.6378 49.3272 74.279 49.5564 73.9842C49.8441 73.6137 50.0449 73.1874 50.1448 72.7347H50.9686C51.0685 73.1874 51.2693 73.6137 51.557 73.9842C51.7862 74.279 51.9101 74.6378 51.9101 75.0065C51.9101 75.3752 51.7862 75.7339 51.557 76.0288C51.0618 76.6869 50.8128 77.488 50.8509 78.3006C50.8613 79.0985 51.0929 79.879 51.5217 80.5611V80.5724ZM54.099 82.7307C54.2441 82.3677 54.3237 81.9836 54.3344 81.5948C54.3156 80.7899 54.0716 80.0049 53.6283 79.3229C53.3992 79.0281 53.2752 78.6693 53.2752 78.3006C53.2752 77.9319 53.3992 77.5732 53.6283 77.2783C54.1235 76.6202 54.3725 75.8191 54.3344 75.0065C54.3237 74.6177 54.2441 74.2335 54.099 73.8706C54.7842 74.4029 55.337 75.0766 55.7167 75.8423C56.0966 76.6079 56.2937 77.4461 56.2937 78.2949C56.2937 79.1438 56.0966 79.982 55.7167 80.7476C55.337 81.5133 54.7842 82.187 54.099 82.7193V82.7307Z" fill="#D3A874"/>
<path d="M55.2759 10.7934H42.8601C40.7772 10.7994 38.7818 11.6031 37.3123 13.0279C35.8427 14.4527 35.019 16.3822 35.0222 18.3927V30.422C35.019 32.4324 35.8427 34.3619 37.3123 35.7868C38.7818 37.2115 40.7772 38.0152 42.8601 38.0212H55.2759C57.3547 38.0092 59.3441 37.2029 60.8085 35.7787C62.273 34.3546 63.0934 32.4286 63.0902 30.422V18.3927C63.0934 16.3861 62.273 14.4601 60.8085 13.0359C59.3441 11.6117 57.3547 10.8054 55.2759 10.7934ZM60.7365 30.422C60.738 31.1201 60.5972 31.8116 60.3218 32.4572C60.0464 33.1027 59.642 33.6896 59.1316 34.1843C58.6214 34.679 58.015 35.0718 57.3474 35.3404C56.6798 35.6089 55.9639 35.7479 55.2406 35.7494H42.8601C42.1368 35.7479 41.4209 35.6089 40.7533 35.3404C40.0856 35.0718 39.4793 34.679 38.969 34.1843C38.4586 33.6896 38.0543 33.1027 37.7789 32.4572C37.5035 31.8116 37.3626 31.1201 37.3642 30.422V18.3927C37.3626 17.6945 37.5035 17.003 37.7789 16.3574C38.0543 15.7119 38.4586 15.125 38.969 14.6303C39.4793 14.1356 40.0856 13.7428 40.7533 13.4743C41.4209 13.2057 42.1368 13.0667 42.8601 13.0652H55.2759C56.7305 13.0772 58.1211 13.6442 59.1442 14.6423C60.1673 15.6404 60.7397 16.9887 60.7365 18.3927V30.422Z" fill="#D3A874"/>
<path d="M49.0739 33.1481C46.6737 33.1481 44.3718 32.2278 42.6746 30.5897C40.9774 28.9515 40.0239 26.7297 40.0239 24.413C40.0239 22.0963 40.9774 19.8745 42.6746 18.2364C44.3718 16.5981 46.6737 15.6778 49.0739 15.6778C50.289 15.6811 51.4913 15.9179 52.6107 16.3743C53.73 16.8305 54.7441 17.4974 55.5937 18.3359C56.4149 19.1395 57.0593 20.0952 57.488 21.1454C57.9168 22.1957 58.1211 23.3186 58.0886 24.4471C58.0824 26.7528 57.1306 28.9625 55.4414 30.593C53.7521 32.2235 51.4628 33.1421 49.0739 33.1481ZM49.0739 17.9496C47.748 17.9429 46.4498 18.3162 45.3441 19.0223C44.2382 19.7284 43.3745 20.7355 42.8622 21.9159C42.3499 23.0962 42.2123 24.3969 42.4667 25.6529C42.7211 26.9089 43.356 28.0637 44.2911 28.9711C45.2262 29.8784 46.4192 30.4974 47.7192 30.7495C49.019 31.0017 50.3672 30.8758 51.5929 30.3875C52.8186 29.8993 53.8665 29.0709 54.6038 28.0073C55.3412 26.9437 55.7349 25.6928 55.7349 24.413C55.7678 23.5756 55.6231 22.7406 55.3093 21.9592C54.9957 21.1778 54.5197 20.4666 53.9108 19.8693C53.277 19.2546 52.5231 18.7674 51.6929 18.4359C50.8626 18.1045 49.9724 17.9353 49.0739 17.9383V17.9496Z" fill="#D3A874"/>
<path d="M11.0262 10.6798C8.94323 10.6859 6.94791 11.4895 5.47836 12.9143C4.00882 14.3391 3.18517 16.2686 3.1883 18.2791V30.5356C3.18517 32.546 4.00882 34.4755 5.47836 35.9004C6.94791 37.3251 8.94323 38.1288 11.0262 38.1348H23.6656C25.7485 38.1288 27.7439 37.3251 29.2134 35.9004C30.6829 34.4755 31.5066 32.546 31.5034 30.5356V18.2791C31.5066 16.2686 30.6829 14.3391 29.2134 12.9143C27.7439 11.4895 25.7485 10.6859 23.6656 10.6798H11.0262ZM29.291 18.2791V21.4596H27.5374C27.3802 21.4496 27.2225 21.4721 27.0751 21.5256C26.9276 21.5791 26.7935 21.6625 26.6822 21.7701C26.5708 21.8777 26.4844 22.0069 26.429 22.1492C26.3735 22.2916 26.3502 22.4438 26.3606 22.5955C26.3502 22.7473 26.3735 22.8995 26.429 23.0418C26.4844 23.1842 26.5708 23.3134 26.6822 23.421C26.7935 23.5286 26.9276 23.612 27.0751 23.6655C27.2225 23.719 27.3802 23.7415 27.5374 23.7315H29.291V30.422C29.2925 31.1201 29.1516 31.8117 28.8762 32.4572C28.6008 33.1027 28.1965 33.6897 27.6861 34.1843C27.1758 34.679 26.5695 35.0718 25.9018 35.3404C25.2342 35.6089 24.5183 35.7479 23.795 35.7494V33.8184C23.795 33.5171 23.671 33.2281 23.4503 33.0151C23.2297 32.8022 22.9303 32.6824 22.6182 32.6824C22.3061 32.6824 22.0067 32.8022 21.786 33.0151C21.5654 33.2281 21.4413 33.5171 21.4413 33.8184V35.7494H11.1438C10.118 35.7588 9.1105 35.4861 8.23933 34.9631C7.36818 34.44 6.66934 33.6884 6.22459 32.796C6.32774 32.9075 6.45497 32.9958 6.5973 33.0547C6.73964 33.1135 6.89361 33.1416 7.04839 33.1368C7.20316 33.1416 7.35714 33.1135 7.49947 33.0547C7.64181 32.9958 7.76902 32.9075 7.87219 32.796L9.39033 31.3193C9.60597 31.107 9.72675 30.8216 9.72675 30.5242C9.72675 30.2268 9.60597 29.9414 9.39033 29.7291C9.17088 29.5244 8.87762 29.4099 8.57242 29.4099C8.26721 29.4099 7.97394 29.5244 7.7545 29.7291L6.23636 31.2058C6.1337 31.2912 6.04964 31.3953 5.98903 31.5123C5.92844 31.6293 5.89249 31.7568 5.8833 31.8873C5.73888 31.407 5.65976 30.9106 5.64793 30.4106V18.2791C5.61885 17.1741 5.98917 16.0937 6.69533 15.2235L7.74273 16.2458C7.96474 16.4531 8.25793 16.5743 8.56653 16.5866C8.87514 16.5743 9.16832 16.4531 9.39033 16.2458C9.60597 16.0335 9.72675 15.748 9.72675 15.4507C9.72675 15.1533 9.60597 14.8679 9.39033 14.6555L8.44885 13.7468C9.31062 13.2383 10.2986 12.9635 11.3086 12.9517H17.1929V13.8604C17.1929 14.1617 17.3169 14.4506 17.5376 14.6636C17.7582 14.8766 18.0576 14.9963 18.3697 14.9963C18.6818 14.9963 18.9812 14.8766 19.2019 14.6636C19.4226 14.4506 19.5466 14.1617 19.5466 13.8604V12.9517H23.6656C25.1412 12.9455 26.5597 13.5016 27.613 14.4991C28.6663 15.4966 29.2693 16.855 29.291 18.2791Z" fill="#D3A874"/>
<path d="M14.6627 16.0073L13.2504 14.6555C13.031 14.4508 12.7377 14.3364 12.4325 14.3364C12.1273 14.3364 11.834 14.4508 11.6146 14.6555C11.399 14.8679 11.2782 15.1534 11.2782 15.4507C11.2782 15.748 11.399 16.0335 11.6146 16.2458L12.4384 17.041C11.9207 17.357 11.4496 17.7391 11.0379 18.1769C10.1703 19.0302 9.48566 20.0402 9.02321 21.1493C8.56075 22.2584 8.32958 23.4448 8.34295 24.6402H7.40146C7.08934 24.6402 6.79001 24.7599 6.5693 24.9729C6.34859 25.1859 6.22461 25.4749 6.22461 25.7761C6.22461 26.0774 6.34859 26.3663 6.5693 26.5793C6.79001 26.7923 7.08934 26.912 7.40146 26.912H8.68424C9.14581 28.298 9.90355 29.5749 10.9085 30.6605C11.2276 30.9941 11.5783 31.2983 11.9559 31.5693L10.779 32.7052C10.5634 32.9175 10.4426 33.2029 10.4426 33.5003C10.4426 33.7977 10.5634 34.0831 10.779 34.2954C11.001 34.5028 11.2942 34.624 11.6028 34.6362C11.9114 34.624 12.2046 34.5028 12.4266 34.2954L13.9448 32.8188C14.0625 32.7052 14.0625 32.7052 14.0625 32.5916C15.1131 32.9536 16.2186 33.1456 17.3341 33.1595C18.5324 33.1535 19.7176 32.9197 20.8222 32.4715C21.9267 32.0232 22.9289 31.3692 23.7715 30.5469C25.465 28.8782 26.4134 26.6353 26.4134 24.2994C26.4134 21.9635 25.465 19.7207 23.7715 18.0519C22.5894 16.944 21.1165 16.1681 19.5114 15.8078C17.9064 15.4475 16.2301 15.5165 14.6627 16.0073ZM22.1592 29.0589C21.5351 29.6785 20.7887 30.1712 19.9639 30.5075C19.1392 30.8439 18.253 31.0171 17.3576 31.0171C16.4623 31.0171 15.5761 30.8439 14.7514 30.5075C13.9266 30.1712 13.1802 29.6785 12.5561 29.0589C11.9192 28.4514 11.4135 27.7279 11.0684 26.9304C10.7232 26.133 10.5455 25.2773 10.5455 24.413C10.5455 23.5487 10.7232 22.693 11.0684 21.8956C11.4135 21.0981 11.9192 20.3746 12.5561 19.7671C13.1802 19.1475 13.9266 18.6549 14.7514 18.3185C15.5761 17.9822 16.4623 17.8089 17.3576 17.8089C18.253 17.8089 19.1392 17.9822 19.9639 18.3185C20.7887 18.6549 21.5351 19.1475 22.1592 19.7671C22.7954 20.3754 23.3002 21.0995 23.6443 21.8973C23.9884 22.6952 24.1651 23.5511 24.1639 24.4154C24.1628 25.2797 23.984 26.1352 23.6378 26.9322C23.2917 27.7293 22.7852 28.4522 22.1474 29.0589H22.1592Z" fill="#D3A874"/>
<path d="M20.6293 14.6555C20.6189 14.8073 20.6422 14.9595 20.6977 15.1018C20.7531 15.2442 20.8395 15.3735 20.9509 15.481C21.0624 15.5886 21.1963 15.6719 21.3438 15.7255C21.4912 15.779 21.6489 15.8015 21.8061 15.7915H23.9009C24.0582 15.8015 24.2159 15.779 24.3633 15.7255C24.5108 15.6719 24.6448 15.5886 24.7562 15.481C24.8676 15.3735 24.954 15.2442 25.0094 15.1018C25.0649 14.9595 25.0882 14.8073 25.0778 14.6555C25.0882 14.5038 25.0649 14.3516 25.0094 14.2092C24.954 14.0669 24.8676 13.9376 24.7562 13.83C24.6448 13.7225 24.5108 13.6392 24.3633 13.5856C24.2159 13.5321 24.0582 13.5096 23.9009 13.5196H21.7944C21.4907 13.541 21.2054 13.6679 20.9912 13.8767C20.777 14.0856 20.6484 14.3623 20.6293 14.6555Z" fill="#D3A874"/>
<path d="M26.0075 30.5356C25.788 30.3309 25.4948 30.2164 25.1896 30.2164C24.8844 30.2164 24.5912 30.3309 24.3717 30.5356C24.1561 30.7479 24.0352 31.0333 24.0352 31.3307C24.0352 31.6281 24.1561 31.9135 24.3717 32.1258L25.8898 33.6025C26.1093 33.8072 26.4026 33.9217 26.7077 33.9217C27.0129 33.9217 27.3062 33.8072 27.5257 33.6025C27.7413 33.3902 27.8621 33.1048 27.8621 32.8074C27.8621 32.51 27.7413 32.2245 27.5257 32.0122L26.0075 30.5356Z" fill="#D3A874"/>
<path d="M56.0879 40.2135H45.202C43.3293 40.2135 41.5333 40.9315 40.2091 42.2098C38.8848 43.4879 38.1409 45.2214 38.1409 47.029V57.5816C38.1409 59.3892 38.8848 61.1227 40.2091 62.4008C41.5333 63.6791 43.3293 64.3971 45.202 64.3971H56.0879C57.9606 64.3971 59.7566 63.6791 61.0808 62.4008C62.4051 61.1227 63.149 59.3892 63.149 57.5816V47.029C63.149 45.2214 62.4051 43.4879 61.0808 42.2098C59.7566 40.9315 57.9606 40.2135 56.0879 40.2135ZM60.7953 57.5703C60.7953 58.7753 60.2994 59.931 59.4165 60.7831C58.5338 61.6352 57.3364 62.1139 56.0879 62.1139H45.202C43.9535 62.1139 42.7561 61.6352 41.8734 60.7831C40.9905 59.931 40.4946 58.7753 40.4946 57.5703V47.029C40.4946 45.8239 40.9905 44.6682 41.8734 43.8162C42.7561 42.964 43.9535 42.4854 45.202 42.4854H56.0879C57.3364 42.4854 58.5338 42.964 59.4165 43.8162C60.2994 44.6682 60.7953 45.8239 60.7953 47.029V57.5703Z" fill="#D3A874"/>
<path d="M50.7097 45.3933C49.3131 45.3933 47.948 45.793 46.7868 46.5419C45.6256 47.2908 44.7205 48.3552 44.186 49.6006C43.6516 50.846 43.5118 52.2164 43.7843 53.5383C44.0567 54.8604 44.7292 56.0748 45.7168 57.028C46.7043 57.9812 47.9625 58.6303 49.3322 58.8932C50.7018 59.1562 52.1216 59.0213 53.4119 58.5054C54.7022 57.9895 55.8049 57.116 56.5808 55.9952C57.3567 54.8744 57.7708 53.5567 57.7708 52.2087C57.7708 50.4012 57.027 48.6677 55.7026 47.3895C54.3784 46.1113 52.5824 45.3933 50.7097 45.3933ZM49.5329 56.6274C48.5171 56.3744 47.618 55.801 46.9784 54.9983C46.3388 54.1958 45.9952 53.2099 46.0023 52.1974C46.0092 51.1882 46.3581 50.209 46.9954 49.4091C47.6329 48.6092 48.5241 48.0326 49.5329 47.7673V56.6274ZM51.8866 56.6274V47.7787C52.9209 48.012 53.8431 48.5762 54.5032 49.3794C55.1633 50.1827 55.5225 51.1778 55.5225 52.2031C55.5225 53.2283 55.1633 54.2234 54.5032 55.0267C53.8431 55.8299 52.9209 56.3941 51.8866 56.6274Z" fill="#D3A874"/>
<path d="M28.3495 41.8833C26.8122 41.8675 25.3047 42.2931 24.0185 43.106C22.7324 43.919 21.7256 45.0825 21.1259 46.4487C20.5262 47.8151 20.3609 49.3227 20.6507 50.78C20.9406 52.2372 21.6727 53.5785 22.754 54.6333C23.8352 55.6882 25.2169 56.4091 26.7235 56.7044C28.2302 56.9998 29.7937 56.8562 31.2157 56.2921C32.6376 55.7279 33.8538 54.7686 34.7096 53.5359C35.5655 52.3032 36.0225 50.8528 36.0226 49.3689C36.0288 47.3955 35.2251 45.5 33.7871 44.0972C32.3491 42.6943 30.394 41.8983 28.3495 41.8833ZM28.3495 54.7077C27.6413 54.7077 26.94 54.5727 26.2859 54.3104C25.6319 54.0481 25.0379 53.6637 24.5381 53.1792C24.0384 52.6948 23.6428 52.1199 23.3739 51.4874C23.1049 50.8549 22.9682 50.1775 22.9713 49.4939C22.976 48.4682 23.2952 47.4668 23.8891 46.6161C24.4829 45.7654 25.3245 45.1036 26.3076 44.7142C27.2908 44.3247 28.3714 44.2252 29.4131 44.4281C30.4548 44.631 31.411 45.1271 32.1607 45.854C32.9105 46.5809 33.4204 47.5058 33.626 48.5122C33.8316 49.5185 33.7238 50.5612 33.316 51.5084C32.9083 52.4556 32.219 53.265 31.335 53.8344C30.4511 54.4039 29.4122 54.7077 28.3495 54.7077Z" fill="#D3A874"/>
<path d="M28.3494 46.0748C27.6734 46.0703 27.0113 46.2597 26.4469 46.6189C25.8826 46.9781 25.4415 47.491 25.1796 48.0926C24.9177 48.694 24.8468 49.3571 24.9757 49.9976C25.1047 50.6381 25.4279 51.2272 25.9043 51.6901C26.3807 52.1531 26.9887 52.4691 27.6513 52.598C28.314 52.7271 29.0014 52.6631 29.6264 52.4145C30.2515 52.1658 30.7859 51.7436 31.1619 51.2014C31.538 50.6593 31.7388 50.0215 31.7388 49.369C31.7403 48.9379 31.6539 48.5107 31.4843 48.1119C31.3149 47.7129 31.0656 47.3502 30.7509 47.0443C30.4362 46.7384 30.0621 46.4955 29.6501 46.3291C29.2381 46.1628 28.796 46.0763 28.3494 46.0748ZM28.3494 50.5049C28.1399 50.5049 27.9352 50.4449 27.761 50.3326C27.5868 50.2202 27.451 50.0606 27.3709 49.8738C27.2907 49.687 27.2698 49.4814 27.3106 49.2831C27.3515 49.0848 27.4523 48.9027 27.6005 48.7597C27.7486 48.6167 27.9373 48.5193 28.1428 48.4799C28.3482 48.4405 28.5613 48.4607 28.7547 48.5381C28.9483 48.6154 29.1137 48.7465 29.2301 48.9146C29.3465 49.0827 29.4086 49.2804 29.4086 49.4826C29.4101 49.6173 29.3839 49.7509 29.3312 49.8756C29.2786 50.0003 29.2005 50.1136 29.1019 50.2089C29.0032 50.3041 28.8858 50.3794 28.7566 50.4302C28.6274 50.481 28.489 50.5064 28.3494 50.5049Z" fill="#D3A874"/>
<path d="M28.3495 58.8993C26.8101 58.8835 25.3008 59.3102 24.0137 60.1251C22.7264 60.94 21.7197 62.1063 21.1215 63.4753C20.5231 64.8444 20.3605 66.3542 20.6542 67.8128C20.948 69.2713 21.6847 70.6124 22.7707 71.6655C23.8567 72.7185 25.2428 73.4359 26.7526 73.726C28.2623 74.0162 29.8274 73.8661 31.2484 73.295C32.6696 72.7239 33.8825 71.7574 34.7326 70.5187C35.5828 69.2801 36.0319 67.8252 36.0226 66.3395C36.0164 64.3739 35.2071 62.4901 33.7705 61.097C32.3338 59.7039 30.3858 58.9143 28.3495 58.8993ZM28.3495 71.7237C27.6412 71.7237 26.9399 71.5886 26.2858 71.3264C25.6319 71.0641 25.0379 70.6797 24.5381 70.1952C24.0384 69.7107 23.6428 69.1359 23.3738 68.5034C23.1049 67.8709 22.9682 67.1935 22.9712 66.5099C22.9759 65.4841 23.2952 64.4827 23.8891 63.632C24.4829 62.7813 25.3245 62.1196 26.3076 61.7302C27.2908 61.3407 28.3714 61.2412 29.4131 61.444C30.4547 61.6468 31.4109 62.1431 32.1607 62.8699C32.9105 63.5968 33.4204 64.5218 33.626 65.5282C33.8316 66.5345 33.7238 67.5772 33.316 68.5244C32.9083 69.4715 32.219 70.281 31.335 70.8504C30.4511 71.4198 29.4122 71.7237 28.3495 71.7237Z" fill="#D3A874"/>
<path d="M28.3494 63.0908C27.6719 63.0886 27.0091 63.281 26.4453 63.6437C25.8816 64.0063 25.4424 64.5227 25.1837 65.1271C24.925 65.7315 24.8585 66.3965 24.9928 67.0375C25.127 67.6785 25.4558 68.2663 25.9374 68.7264C26.4189 69.1863 27.0314 69.4975 27.6969 69.6203C28.3623 69.7432 29.0505 69.6721 29.674 69.4162C30.2974 69.1602 30.8278 68.7309 31.1976 68.183C31.5674 67.6351 31.7599 66.9933 31.7506 66.3395C31.7413 65.4747 31.3788 64.6485 30.742 64.0402C30.1052 63.4319 29.2454 63.0908 28.3494 63.0908ZM28.3494 67.5208C28.14 67.5208 27.9352 67.4609 27.761 67.3485C27.5868 67.2362 27.451 67.0766 27.3709 66.8897C27.2907 66.703 27.2698 66.4974 27.3106 66.299C27.3515 66.1007 27.4523 65.9186 27.6005 65.7756C27.7487 65.6326 27.9373 65.5353 28.1428 65.4958C28.3483 65.4564 28.5613 65.4766 28.7548 65.554C28.9483 65.6314 29.1137 65.7624 29.2301 65.9306C29.3465 66.0987 29.4086 66.2963 29.4086 66.4985C29.3994 66.7626 29.2834 67.0129 29.0855 67.1954C28.8875 67.378 28.6233 67.4785 28.3494 67.4754V67.5208Z" fill="#D3A874"/>
<path d="M10.7908 41.8833C9.25542 41.8766 7.75252 42.3099 6.4725 43.1283C5.19248 43.9467 4.19295 45.1134 3.60054 46.4807C3.00813 47.8479 2.8495 49.3541 3.14474 50.8084C3.43999 52.2627 4.17583 53.5997 5.25903 54.6499C6.34224 55.7003 7.72406 56.4166 9.22943 56.7082C10.7348 56.9998 12.296 56.8536 13.7152 56.288C15.1343 55.7225 16.3477 54.7631 17.2015 53.5313C18.0552 52.2995 18.5109 50.851 18.5109 49.369C18.514 48.388 18.3168 47.416 17.9303 46.5086C17.5438 45.6014 16.9759 44.7765 16.2588 44.0812C15.5417 43.3859 14.6898 42.834 13.7515 42.4568C12.8132 42.0797 11.8071 41.8848 10.7908 41.8833ZM10.7908 54.7077C10.0825 54.7063 9.38153 54.5697 8.72806 54.3061C8.0746 54.0424 7.48152 53.6568 6.98289 53.1712C6.48425 52.6857 6.08989 52.1099 5.82243 51.477C5.55496 50.8439 5.41967 50.1662 5.42433 49.4826C5.43951 48.1082 6.01029 46.794 7.01497 45.82C8.01965 44.846 9.37876 44.2894 10.8026 44.2687C12.2263 44.2894 13.5855 44.846 14.5901 45.82C15.5948 46.794 16.1656 48.1082 16.1808 49.4826C16.1838 50.1672 16.0467 50.8455 15.777 51.4787C15.5074 52.1119 15.1107 52.6873 14.6097 53.172C14.1088 53.6566 13.5134 54.0407 12.858 54.3023C12.2026 54.5639 11.5 54.6979 10.7908 54.6964V54.7077Z" fill="#D3A874"/>
<path d="M10.7908 46.0748C10.1148 46.0703 9.45265 46.2597 8.88832 46.6189C8.32399 46.9781 7.88289 47.491 7.62096 48.0926C7.35904 48.694 7.28809 49.3571 7.41711 49.9976C7.54611 50.6381 7.86929 51.2272 8.34565 51.6901C8.82199 52.1531 9.43006 52.4691 10.0927 52.598C10.7554 52.7271 11.4428 52.6631 12.0678 52.4145C12.6928 52.1658 13.2272 51.7436 13.6033 51.2014C13.9793 50.6593 14.1801 50.0215 14.1801 49.369C14.1817 48.9379 14.0952 48.5107 13.9257 48.1119C13.7562 47.7129 13.507 47.3502 13.1923 47.0443C12.8776 46.7384 12.5035 46.4955 12.0914 46.3291C11.6794 46.1628 11.2374 46.0763 10.7908 46.0748ZM10.7908 50.5049C10.5813 50.5049 10.3765 50.4449 10.2023 50.3326C10.0282 50.2202 9.89241 50.0606 9.81224 49.8738C9.73207 49.687 9.7111 49.4814 9.75196 49.2831C9.79284 49.0848 9.89372 48.9027 10.0418 48.7597C10.19 48.6167 10.3787 48.5193 10.5842 48.4799C10.7896 48.4405 11.0026 48.4607 11.1961 48.5381C11.3897 48.6154 11.5551 48.7465 11.6715 48.9146C11.7878 49.0827 11.85 49.2804 11.85 49.4826C11.8515 49.6173 11.8252 49.7509 11.7725 49.8756C11.7199 50.0003 11.6419 50.1136 11.5432 50.2089C11.4446 50.3041 11.3272 50.3794 11.198 50.4302C11.0688 50.481 10.9303 50.5064 10.7908 50.5049Z" fill="#D3A874"/>
<path d="M10.7908 58.8993C9.25393 58.8948 7.75032 59.3311 6.47084 60.153C5.19136 60.9748 4.1937 62.145 3.6045 63.515C3.0153 64.8852 2.86113 66.3933 3.16154 67.8481C3.46196 69.303 4.20343 70.6388 5.29183 71.6861C6.38022 72.7334 7.76648 73.4451 9.27463 73.7305C10.7828 74.0161 12.3448 73.8627 13.7625 73.2898C15.1801 72.7169 16.3895 71.7504 17.237 70.5129C18.0846 69.2755 18.532 67.8229 18.5227 66.3395C18.5165 64.3641 17.6992 62.4717 16.2498 61.077C14.8005 59.6824 12.8374 58.8993 10.7908 58.8993ZM10.7908 71.7237C10.0825 71.7222 9.38154 71.5857 8.72808 71.322C8.07461 71.0584 7.48154 70.6728 6.9829 70.1872C6.48428 69.7017 6.0899 69.1259 5.82244 68.4929C5.55499 67.8599 5.4197 67.1821 5.42435 66.4985C5.43953 65.1242 6.0103 63.8099 7.01499 62.836C8.01968 61.8619 9.37879 61.3054 10.8026 61.2847C12.2264 61.3054 13.5855 61.8619 14.5902 62.836C15.5948 63.8099 16.1656 65.1242 16.1808 66.4985C16.1839 67.1831 16.0466 67.8615 15.777 68.4947C15.5074 69.1278 15.1107 69.7033 14.6098 70.188C14.1088 70.6725 13.5134 71.0567 12.858 71.3183C12.2026 71.5799 11.5001 71.7138 10.7908 71.7123V71.7237Z" fill="#D3A874"/>
<path d="M10.7908 63.0908C10.1133 63.0886 9.45048 63.281 8.88671 63.6437C8.32293 64.0063 7.88374 64.5227 7.62506 65.1271C7.36637 65.7315 7.29992 66.3965 7.43413 67.0375C7.56835 67.6785 7.89716 68.2663 8.37872 68.7264C8.86027 69.1863 9.47277 69.4975 10.1382 69.6203C10.8036 69.7432 11.4919 69.6721 12.1153 69.4162C12.7388 69.1602 13.2691 68.7309 13.639 68.183C14.0088 67.6351 14.2013 66.9933 14.1919 66.3395C14.1826 65.4747 13.8202 64.6485 13.1834 64.0402C12.5465 63.4319 11.6868 63.0908 10.7908 63.0908ZM10.7908 67.5208C10.5813 67.5208 10.3765 67.4609 10.2024 67.3485C10.0282 67.2362 9.89243 67.0766 9.81227 66.8897C9.7321 66.703 9.71113 66.4974 9.75199 66.299C9.79286 66.1007 9.89374 65.9186 10.0419 65.7756C10.19 65.6326 10.3787 65.5353 10.5842 65.4958C10.7896 65.4564 11.0026 65.4766 11.1961 65.554C11.3897 65.6314 11.5551 65.7624 11.6715 65.9306C11.7879 66.0987 11.85 66.2963 11.85 66.4985C11.8408 66.7626 11.7248 67.0129 11.5268 67.1954C11.3288 67.378 11.0646 67.4785 10.7908 67.4754V67.5208Z" fill="#D3A874"/>
<path d="M16.322 92.1019C9.06079 92.1019 3.97678 89.0577 3.97678 84.6276C3.97678 80.1976 9.04902 77.1647 16.322 77.1647C22.1121 77.1647 35.693 79.7091 35.693 84.6276C35.693 89.5461 22.1239 92.1019 16.322 92.1019ZM16.322 79.4365C10.6142 79.4365 6.31871 81.7083 6.31871 84.639C6.31871 87.5696 10.626 89.8415 16.322 89.8415C24.0539 89.8415 33.3511 86.6496 33.3511 84.639C33.3511 82.6284 24.0539 79.4365 16.322 79.4365Z" fill="#D3A874"/>
<path d="M9.89638 90.8411C7.06016 86.7177 10.6731 79.0049 11.0732 78.1416L13.1916 79.1071C12.2266 81.1063 10.0494 86.979 11.85 89.5802L9.89638 90.8411Z" fill="#D3A874"/>
<path d="M14.6273 91.0569C11.7911 86.9336 15.404 79.2207 15.8042 78.3574L17.9225 79.3229C16.9339 81.3562 14.7685 87.1948 16.5573 89.796L14.6273 91.0569Z" fill="#D3A874"/>
<path d="M19.3465 91.2727C16.4985 87.1494 20.1233 79.4365 20.5234 78.5732L22.6417 79.5388C21.6532 81.5721 19.4878 87.4106 21.2766 90.0119L19.3465 91.2727Z" fill="#D3A874"/>
<path d="M24.0421 90.3072C21.6884 86.4111 24.8895 79.5502 25.219 78.7777L27.3256 79.7546C26.4429 81.538 24.4894 86.7178 25.9957 89.1372L24.0421 90.3072Z" fill="#D3A874"/>
<path d="M28.7025 88.1149C27.0314 84.2982 29.997 80.4475 30.1265 80.2771L31.9859 81.6516L31.0562 80.97L31.9859 81.6516C31.9859 81.6516 29.7146 84.639 30.8091 87.2289L28.7025 88.1149Z" fill="#D3A874"/>
<path d="M56.3351 23.2771H41.848V25.5489H56.3351V23.2771Z" fill="#D3A874"/>
<path d="M56.6528 26.6848H41.3537V28.9566H56.6528V26.6848Z" fill="#D3A874"/>
<path d="M55.476 19.8694H42.6365V22.1412H55.476V19.8694Z" fill="#D3A874"/>
</svg>