<?xml version="1.0" encoding="utf-8"?>
<!-- Generator: Adobe Illustrator 16.0.0, SVG Export Plug-In . SVG Version: 6.00 Build 0)  -->
<!DOCTYPE svg PUBLIC "-//W3C//DTD SVG 1.1//EN" "http://www.w3.org/Graphics/SVG/1.1/DTD/svg11.dtd">
<svg version="1.1" id="Layer_1" xmlns="http://www.w3.org/2000/svg" xmlns:xlink="http://www.w3.org/1999/xlink" x="0px" y="0px"
	 width="60px" height="60px" viewBox="0 0 60 60" enable-background="new 0 0 60 60" xml:space="preserve">
<path fill-rule="evenodd" clip-rule="evenodd" fill="#EDE8E3" d="M30,0c16.568,0,30,13.432,30,30c0,16.568-13.432,30-30,30
	C13.432,60,0,46.569,0,30C0,13.432,13.432,0,30,0z"/>
<g>
	<g>
		<path d="M38.964,24.979c0.197-0.195,0.197-0.512,0-0.707s-0.516-0.195-0.713,0l-6.774,6.724l-4.702-2.799
			c-0.236-0.141-0.546-0.066-0.69,0.17c-0.145,0.238-0.066,0.545,0.173,0.688l5.375,3.199L38.964,24.979z M31.85,15.5
			c-8.056,0-14.611,6.505-14.611,14.5c0,0.844,0.504,3.291,0.859,4.578l-3.739-2.969c-0.216-0.172-0.533-0.139-0.708,0.078
			c-0.173,0.215-0.139,0.529,0.079,0.703l5.604,4.447l2.243-6.68c0.088-0.262-0.055-0.547-0.318-0.633
			c-0.263-0.086-0.548,0.055-0.638,0.316l-1.53,4.553c-0.326-1.162-0.842-3.633-0.842-4.395c0-7.445,6.102-13.5,13.604-13.5
			c7.501,0,13.604,6.056,13.604,13.5c0,7.443-6.103,13.5-13.604,13.5c-0.279,0-0.504,0.223-0.504,0.5c0,0.275,0.225,0.5,0.504,0.5
			c8.056,0,14.61-6.506,14.61-14.5C46.46,22.005,39.906,15.5,31.85,15.5z"/>
	</g>
</g>
</svg>
