<?xml version="1.0" encoding="utf-8"?>
<!-- Generator: Adobe Illustrator 16.0.0, SVG Export Plug-In . SVG Version: 6.00 Build 0)  -->
<!DOCTYPE svg PUBLIC "-//W3C//DTD SVG 1.1//EN" "http://www.w3.org/Graphics/SVG/1.1/DTD/svg11.dtd">
<svg version="1.1" id="Layer_1" xmlns="http://www.w3.org/2000/svg" xmlns:xlink="http://www.w3.org/1999/xlink" x="0px" y="0px"
	 width="60px" height="60px" viewBox="0 0 60 60" enable-background="new 0 0 60 60" xml:space="preserve">
<path fill-rule="evenodd" clip-rule="evenodd" fill="#EDE8E3" d="M30,0c16.568,0,30,13.432,30,30S46.568,60,30,60S0,46.568,0,30
	S13.432,0,30,0z"/>
<g>
	<path d="M22.065,40.046c-0.095,0.099-0.152,0.233-0.152,0.369c0,0.135,0.058,0.27,0.152,0.368c0.1,0.094,0.236,0.151,0.373,0.151
		s0.273-0.058,0.374-0.151c0.094-0.099,0.152-0.229,0.152-0.368c0-0.136-0.058-0.271-0.152-0.369
		C22.617,39.854,22.26,39.854,22.065,40.046z"/>
	<path d="M22.438,33.661c-0.29,0-0.525,0.232-0.525,0.52v4.156c0,0.287,0.235,0.519,0.525,0.519s0.526-0.231,0.526-0.519v-4.156
		C22.964,33.894,22.729,33.661,22.438,33.661z"/>
	<path d="M23.41,30.716c-0.212-0.361-0.593-0.577-1.016-0.577c-0.423,0-0.803,0.216-1.016,0.577l-6.226,10.548
		c-0.215,0.363-0.217,0.8-0.004,1.165c0.212,0.364,0.594,0.583,1.02,0.583H28.62c0.426,0,0.808-0.219,1.02-0.583
		c0.212-0.365,0.21-0.802-0.004-1.165L23.41,30.716z M28.729,41.911c-0.016,0.028-0.048,0.062-0.108,0.062H16.168
		c-0.06,0-0.092-0.033-0.108-0.062c-0.017-0.028-0.03-0.073,0-0.124l6.226-10.548c0.03-0.052,0.075-0.062,0.108-0.062
		s0.078,0.011,0.108,0.062l6.226,10.548C28.758,41.839,28.745,41.883,28.729,41.911z"/>
	<path d="M44.705,37.248c-1.056-1.972-4.721-4.11-4.882-4.203c-0.671-0.379-1.366-0.495-1.956-0.336
		c-0.443,0.121-0.805,0.398-1.049,0.803c-0.536,0.634-1.201,1.375-1.363,1.489c-1.244,0.833-2.233,0.735-3.308-0.326l-6.038-5.967
		c-1.075-1.063-1.173-2.041-0.332-3.269c0.118-0.161,0.867-0.818,1.508-1.349c0.409-0.24,0.69-0.598,0.813-1.036
		c0.161-0.574,0.037-1.28-0.343-1.938c-0.091-0.154-2.255-3.776-4.25-4.819c-1.012-0.528-2.237-0.348-3.046,0.453l-1.334,1.318
		c-3.171,3.133-3.275,6.961-0.301,11.072c0.168,0.232,0.497,0.286,0.733,0.119c0.236-0.166,0.291-0.491,0.122-0.725
		c-2.71-3.745-2.648-6.93,0.189-9.732l1.333-1.318c0.482-0.476,1.21-0.585,1.811-0.27c1.731,0.905,3.814,4.391,3.832,4.421
		c0.236,0.408,0.326,0.835,0.24,1.141c-0.052,0.187-0.17,0.329-0.359,0.435l-0.079,0.054c-0.449,0.37-1.516,1.265-1.739,1.591
		c-0.322,0.469-0.535,0.931-0.646,1.384c-0.374-0.736-0.676-1.59-0.775-2.535c-0.03-0.285-0.289-0.488-0.577-0.464
		c-0.289,0.03-0.499,0.285-0.469,0.571c0.379,3.612,3.221,5.963,3.342,6.062c0.013,0.011,0.029,0.015,0.043,0.023l5.577,5.513
		c0.024,0.022,0.047,0.043,0.071,0.065c0.019,0.027,0.03,0.058,0.055,0.081c0.1,0.097,2.473,2.372,6.097,2.744
		c0.019,0.002,0.037,0.003,0.055,0.003c0.266,0,0.494-0.199,0.522-0.466c0.03-0.285-0.18-0.54-0.469-0.57
		c-1.111-0.114-2.096-0.437-2.916-0.81c0.402-0.119,0.812-0.318,1.226-0.596c0.33-0.221,1.236-1.275,1.609-1.719l0.055-0.078
		c0.106-0.187,0.25-0.303,0.439-0.354c0.307-0.085,0.74,0.004,1.148,0.233c0.988,0.572,3.718,2.368,4.479,3.79
		c0.318,0.595,0.209,1.313-0.272,1.789l-1.333,1.318c-2.835,2.802-6.198,2.829-9.996,0.083c-0.234-0.17-0.563-0.119-0.734,0.111
		c-0.171,0.232-0.12,0.557,0.113,0.726c2.068,1.497,4.064,2.243,5.943,2.243c1.953,0,3.778-0.811,5.416-2.429l1.334-1.318
		C45.057,39.458,45.24,38.248,44.705,37.248z"/>
</g>
</svg>
