<?xml version="1.0" encoding="utf-8"?>
<!-- Generator: Adobe Illustrator 16.0.0, SVG Export Plug-In . SVG Version: 6.00 Build 0)  -->
<!DOCTYPE svg PUBLIC "-//W3C//DTD SVG 1.1//EN" "http://www.w3.org/Graphics/SVG/1.1/DTD/svg11.dtd">
<svg version="1.1" id="Layer_1" xmlns="http://www.w3.org/2000/svg" xmlns:xlink="http://www.w3.org/1999/xlink" x="0px" y="0px"
	 width="60px" height="60px" viewBox="0 0 60 60" enable-background="new 0 0 60 60" xml:space="preserve">
<path fill-rule="evenodd" clip-rule="evenodd" fill="#EDE8E3" d="M30,0c16.568,0,30,13.432,30,30c0,16.569-13.432,30-30,30
	C13.432,60,0,46.569,0,30C0,13.432,13.432,0,30,0z"/>
<g>
	<g>
		<path d="M33.092,18.111v-1.837h0.323c0.266,0,0.48-0.213,0.48-0.476V14.73c0-1.229-1.011-2.23-2.253-2.23h-3.285
			c-1.243,0-2.253,1.001-2.253,2.23v1.068c0,0.263,0.215,0.476,0.48,0.476h0.323v1.837c-2.203,0.459-4.229,1.398-5.962,2.701
			l-1.103-1.092c-0.387-0.383-1.016-0.383-1.402,0l-1.361,1.349c-0.188,0.186-0.291,0.432-0.291,0.694
			c0,0.262,0.104,0.509,0.291,0.693l1.084,1.075C16.183,26.05,15,29.214,15,32.646c0,8.19,6.729,14.854,15,14.854
			s15-6.664,15-14.854C45,25.506,39.885,19.526,33.092,18.111z M27.065,14.73c0-0.705,0.579-1.278,1.292-1.278h3.285
			c0.713,0,1.292,0.573,1.292,1.278v0.592h-5.869V14.73z M32.131,16.31v1.635c-0.696-0.099-1.407-0.151-2.131-0.151
			s-1.435,0.053-2.131,0.151V16.31H32.131z M17.76,21.784c-0.003-0.002-0.009-0.009-0.009-0.021c0-0.013,0.006-0.019,0.009-0.021
			l1.361-1.349c0.012-0.011,0.031-0.011,0.043,0l1.03,1.021c-0.501,0.429-0.972,0.892-1.412,1.382L17.76,21.784z M30,46.547
			c-7.741,0-14.039-6.236-14.039-13.901c0-7.665,6.298-13.901,14.039-13.901c7.74,0,14.039,6.236,14.039,13.901
			C44.039,40.311,37.74,46.547,30,46.547z M30,21.063c-6.45,0-11.697,5.196-11.697,11.583c0,6.387,5.247,11.583,11.697,11.583
			s11.697-5.195,11.697-11.583C41.697,26.26,36.45,21.063,30,21.063z M30,43.278c-5.92,0-10.735-4.77-10.735-10.631
			c0-5.861,4.815-10.631,10.735-10.631s10.735,4.77,10.735,10.631C40.735,38.508,35.92,43.278,30,43.278z M30,26.089
			c-0.229,0-0.426,0.158-0.471,0.38c0,0-1.268,5.957-1.268,6.178c0,0.949,0.78,1.721,1.738,1.721s1.737-0.771,1.737-1.721
			c0.001-0.221-1.267-6.178-1.267-6.178C30.425,26.247,30.229,26.089,30,26.089z M30,28.938l0.421,2.039
			c-0.135-0.034-0.275-0.052-0.421-0.052s-0.286,0.018-0.422,0.052L30,28.938z M30.776,32.646c0,0.424-0.349,0.769-0.776,0.769
			s-0.776-0.345-0.776-0.769s0.349-0.769,0.776-0.769S30.776,32.223,30.776,32.646z M30,40.018c-0.266,0-0.48,0.215-0.48,0.477
			v1.844c0,0.264,0.215,0.477,0.48,0.477s0.48-0.213,0.48-0.477v-1.844C30.48,40.233,30.266,40.018,30,40.018z M30,25.274
			c0.266,0,0.48-0.214,0.48-0.477v-1.844c0-0.263-0.215-0.476-0.48-0.476s-0.48,0.213-0.48,0.476v1.844
			C29.52,25.061,29.734,25.274,30,25.274z M24.056,37.86l-1.316,1.303c-0.188,0.188-0.188,0.488,0,0.674
			c0.094,0.094,0.217,0.141,0.34,0.141s0.246-0.047,0.34-0.141l1.316-1.303c0.188-0.188,0.188-0.488,0-0.674
			S24.243,37.674,24.056,37.86z M36.581,25.457l-1.303,1.29c-0.095,0.087-0.154,0.211-0.154,0.35c0,0.263,0.216,0.476,0.481,0.476
			c0.127,0,0.249-0.05,0.34-0.139l1.315-1.304c0.188-0.187,0.188-0.487,0-0.674C37.073,25.271,36.769,25.271,36.581,25.457z
			 M22.073,32.171h-1.861c-0.266,0-0.481,0.213-0.481,0.476c0,0.264,0.216,0.477,0.481,0.477h1.861c0.266,0,0.48-0.213,0.48-0.477
			C22.554,32.384,22.339,32.171,22.073,32.171z M39.787,32.17h-1.86c-0.266,0-0.481,0.213-0.481,0.477
			c0,0.263,0.216,0.476,0.481,0.476h1.86c0.266,0,0.481-0.213,0.481-0.476C40.269,32.383,40.053,32.17,39.787,32.17z M23.419,25.457
			c-0.188-0.187-0.492-0.187-0.68-0.001c-0.188,0.187-0.188,0.487,0,0.674l1.315,1.304c0.09,0.089,0.213,0.139,0.34,0.139h0.001
			c0.266,0,0.48-0.213,0.48-0.476c0-0.135-0.057-0.257-0.148-0.344L23.419,25.457z M35.944,37.86c-0.188-0.186-0.492-0.186-0.68,0
			c-0.188,0.186-0.188,0.486,0,0.674l1.316,1.303c0.094,0.094,0.217,0.141,0.34,0.141s0.246-0.047,0.34-0.141
			c0.188-0.186,0.188-0.486,0-0.674L35.944,37.86z"/>
	</g>
</g>
</svg>
